<mxfile host="65bd71144e" modified="2021-01-23T06:31:02.342Z" agent="5.0 (Windows NT 10.0; Win64; x64) AppleWebKit/537.36 (KHTML, like Gecko) Code/1.52.1 Chrome/83.0.4103.122 Electron/9.3.5 Safari/537.36" etag="X3DY2JMq0FIw3f7tcOxP" version="13.10.0" type="embed" pages="7">
    <diagram id="rgnP7gbCjMf-DdhSvJbw" name="bucket logic">
        <mxGraphModel dx="1054" dy="617" grid="1" gridSize="10" guides="1" tooltips="1" connect="1" arrows="1" fold="1" page="1" pageScale="1" pageWidth="827" pageHeight="1169" background="#ffffff" math="0" shadow="0">
            <root>
                <mxCell id="7HJQKtHIbpSfHU236uux-0"/>
                <mxCell id="7HJQKtHIbpSfHU236uux-1" parent="7HJQKtHIbpSfHU236uux-0"/>
                <mxCell id="7HJQKtHIbpSfHU236uux-2" value="" style="shape=curlyBracket;whiteSpace=wrap;html=1;rounded=1;fontSize=16;align=left;" parent="7HJQKtHIbpSfHU236uux-1" vertex="1">
                    <mxGeometry x="290" y="280" width="20" height="240" as="geometry"/>
                </mxCell>
                <mxCell id="7HJQKtHIbpSfHU236uux-3" value="root bucket" style="text;html=1;align=left;verticalAlign=middle;resizable=0;points=[];autosize=1;fontSize=16;" parent="7HJQKtHIbpSfHU236uux-1" vertex="1">
                    <mxGeometry x="200" y="390" width="90" height="20" as="geometry"/>
                </mxCell>
                <mxCell id="7HJQKtHIbpSfHU236uux-4" value="users bucket" style="text;html=1;align=left;verticalAlign=middle;resizable=0;points=[];autosize=1;fontSize=16;" parent="7HJQKtHIbpSfHU236uux-1" vertex="1">
                    <mxGeometry x="320" y="290" width="110" height="20" as="geometry"/>
                </mxCell>
                <mxCell id="7HJQKtHIbpSfHU236uux-5" value="meta bucket" style="text;html=1;align=left;verticalAlign=middle;resizable=0;points=[];autosize=1;fontSize=16;" parent="7HJQKtHIbpSfHU236uux-1" vertex="1">
                    <mxGeometry x="320" y="490" width="100" height="20" as="geometry"/>
                </mxCell>
                <mxCell id="7HJQKtHIbpSfHU236uux-6" value="" style="shape=curlyBracket;whiteSpace=wrap;html=1;rounded=1;fontSize=16;align=left;" parent="7HJQKtHIbpSfHU236uux-1" vertex="1">
                    <mxGeometry x="450" y="200" width="20" height="200" as="geometry"/>
                </mxCell>
                <mxCell id="7HJQKtHIbpSfHU236uux-8" value="user0 bucket" style="text;html=1;align=left;verticalAlign=middle;resizable=0;points=[];autosize=1;fontSize=16;" parent="7HJQKtHIbpSfHU236uux-1" vertex="1">
                    <mxGeometry x="480" y="210" width="110" height="20" as="geometry"/>
                </mxCell>
                <mxCell id="7HJQKtHIbpSfHU236uux-9" value="user1 bucket" style="text;html=1;align=left;verticalAlign=middle;resizable=0;points=[];autosize=1;fontSize=16;" parent="7HJQKtHIbpSfHU236uux-1" vertex="1">
                    <mxGeometry x="480" y="290" width="110" height="20" as="geometry"/>
                </mxCell>
                <mxCell id="7HJQKtHIbpSfHU236uux-10" value="user2 bucket" style="text;html=1;align=left;verticalAlign=middle;resizable=0;points=[];autosize=1;fontSize=16;" parent="7HJQKtHIbpSfHU236uux-1" vertex="1">
                    <mxGeometry x="480" y="370" width="110" height="20" as="geometry"/>
                </mxCell>
                <mxCell id="7HJQKtHIbpSfHU236uux-11" value="" style="shape=curlyBracket;whiteSpace=wrap;html=1;rounded=1;fontSize=16;align=left;" parent="7HJQKtHIbpSfHU236uux-1" vertex="1">
                    <mxGeometry x="610" y="200" width="20" height="40" as="geometry"/>
                </mxCell>
                <mxCell id="7HJQKtHIbpSfHU236uux-12" value="balance : 100" style="text;html=1;align=left;verticalAlign=middle;resizable=0;points=[];autosize=1;fontSize=16;" parent="7HJQKtHIbpSfHU236uux-1" vertex="1">
                    <mxGeometry x="640" y="220" width="110" height="20" as="geometry"/>
                </mxCell>
                <mxCell id="7HJQKtHIbpSfHU236uux-13" value="name : Alice" style="text;html=1;align=left;verticalAlign=middle;resizable=0;points=[];autosize=1;fontSize=16;" parent="7HJQKtHIbpSfHU236uux-1" vertex="1">
                    <mxGeometry x="640" y="200" width="100" height="20" as="geometry"/>
                </mxCell>
                <mxCell id="7HJQKtHIbpSfHU236uux-14" value="" style="shape=curlyBracket;whiteSpace=wrap;html=1;rounded=1;fontSize=16;align=left;" parent="7HJQKtHIbpSfHU236uux-1" vertex="1">
                    <mxGeometry x="610" y="280" width="20" height="40" as="geometry"/>
                </mxCell>
                <mxCell id="7HJQKtHIbpSfHU236uux-15" value="balance : 80" style="text;html=1;align=left;verticalAlign=middle;resizable=0;points=[];autosize=1;fontSize=16;" parent="7HJQKtHIbpSfHU236uux-1" vertex="1">
                    <mxGeometry x="640" y="300" width="100" height="20" as="geometry"/>
                </mxCell>
                <mxCell id="7HJQKtHIbpSfHU236uux-16" value="name : Bob" style="text;html=1;align=left;verticalAlign=middle;resizable=0;points=[];autosize=1;fontSize=16;" parent="7HJQKtHIbpSfHU236uux-1" vertex="1">
                    <mxGeometry x="640" y="280" width="100" height="20" as="geometry"/>
                </mxCell>
                <mxCell id="7HJQKtHIbpSfHU236uux-17" value="" style="shape=curlyBracket;whiteSpace=wrap;html=1;rounded=1;fontSize=16;align=left;" parent="7HJQKtHIbpSfHU236uux-1" vertex="1">
                    <mxGeometry x="610" y="360" width="20" height="40" as="geometry"/>
                </mxCell>
                <mxCell id="7HJQKtHIbpSfHU236uux-18" value="balance : 120" style="text;html=1;align=left;verticalAlign=middle;resizable=0;points=[];autosize=1;fontSize=16;" parent="7HJQKtHIbpSfHU236uux-1" vertex="1">
                    <mxGeometry x="640" y="380" width="110" height="20" as="geometry"/>
                </mxCell>
                <mxCell id="7HJQKtHIbpSfHU236uux-19" value="name : Carol" style="text;html=1;align=left;verticalAlign=middle;resizable=0;points=[];autosize=1;fontSize=16;" parent="7HJQKtHIbpSfHU236uux-1" vertex="1">
                    <mxGeometry x="640" y="360" width="110" height="20" as="geometry"/>
                </mxCell>
                <mxCell id="7HJQKtHIbpSfHU236uux-20" value="" style="shape=curlyBracket;whiteSpace=wrap;html=1;rounded=1;fontSize=16;align=left;" parent="7HJQKtHIbpSfHU236uux-1" vertex="1">
                    <mxGeometry x="450" y="450" width="20" height="100" as="geometry"/>
                </mxCell>
                <mxCell id="7HJQKtHIbpSfHU236uux-21" value="bank_name : Lemon Brothers" style="text;html=1;align=left;verticalAlign=middle;resizable=0;points=[];autosize=1;fontSize=16;" parent="7HJQKtHIbpSfHU236uux-1" vertex="1">
                    <mxGeometry x="480" y="450" width="230" height="20" as="geometry"/>
                </mxCell>
                <mxCell id="7HJQKtHIbpSfHU236uux-22" value="address : nowhere" style="text;html=1;align=left;verticalAlign=middle;resizable=0;points=[];autosize=1;fontSize=16;" parent="7HJQKtHIbpSfHU236uux-1" vertex="1">
                    <mxGeometry x="480" y="490" width="150" height="20" as="geometry"/>
                </mxCell>
                <mxCell id="7HJQKtHIbpSfHU236uux-23" value="since : 2020" style="text;html=1;align=left;verticalAlign=middle;resizable=0;points=[];autosize=1;fontSize=16;" parent="7HJQKtHIbpSfHU236uux-1" vertex="1">
                    <mxGeometry x="480" y="530" width="100" height="20" as="geometry"/>
                </mxCell>
            </root>
        </mxGraphModel>
    </diagram>
    <diagram id="IjFvR2Ap6_V-HOKueDym" name="B+Tree">
        <mxGraphModel dx="1054" dy="617" grid="1" gridSize="10" guides="1" tooltips="1" connect="1" arrows="1" fold="1" page="1" pageScale="1" pageWidth="827" pageHeight="1169" background="#ffffff" math="0" shadow="0">
            <root>
                <mxCell id="VSLXQee4k8yGldD-n7jW-0"/>
                <mxCell id="VSLXQee4k8yGldD-n7jW-1" parent="VSLXQee4k8yGldD-n7jW-0"/>
                <mxCell id="wdlYfyDWpWnYxQa1Ixcr-0" value="page l0" style="rounded=0;whiteSpace=wrap;html=1;fillColor=#dae8fc;strokeColor=#6c8ebf;strokeWidth=2;fontSize=16;" parent="VSLXQee4k8yGldD-n7jW-1" vertex="1">
                    <mxGeometry x="40" y="680" width="160" height="40" as="geometry"/>
                </mxCell>
                <mxCell id="wdlYfyDWpWnYxQa1Ixcr-1" value="elem&lt;br&gt;0" style="rounded=0;whiteSpace=wrap;html=1;fillColor=#d5e8d4;strokeColor=#82b366;strokeWidth=2;fontSize=16;" parent="VSLXQee4k8yGldD-n7jW-1" vertex="1">
                    <mxGeometry x="40" y="720" width="40" height="40" as="geometry"/>
                </mxCell>
                <mxCell id="wdlYfyDWpWnYxQa1Ixcr-2" value="elem&lt;br&gt;1" style="rounded=0;whiteSpace=wrap;html=1;fillColor=#d5e8d4;strokeColor=#82b366;strokeWidth=2;fontSize=16;" parent="VSLXQee4k8yGldD-n7jW-1" vertex="1">
                    <mxGeometry x="80" y="720" width="40" height="40" as="geometry"/>
                </mxCell>
                <mxCell id="wdlYfyDWpWnYxQa1Ixcr-3" value="elem&lt;br&gt;2" style="rounded=0;whiteSpace=wrap;html=1;fillColor=#d5e8d4;strokeColor=#82b366;strokeWidth=2;fontSize=16;" parent="VSLXQee4k8yGldD-n7jW-1" vertex="1">
                    <mxGeometry x="120" y="720" width="40" height="40" as="geometry"/>
                </mxCell>
                <mxCell id="wdlYfyDWpWnYxQa1Ixcr-4" value="k 0" style="rounded=0;whiteSpace=wrap;html=1;fillColor=#fff2cc;strokeColor=#d6b656;strokeWidth=2;fontSize=16;horizontal=0;" parent="VSLXQee4k8yGldD-n7jW-1" vertex="1">
                    <mxGeometry x="40" y="770" width="20" height="70" as="geometry"/>
                </mxCell>
                <mxCell id="wdlYfyDWpWnYxQa1Ixcr-5" value="elem&lt;br&gt;3" style="rounded=0;whiteSpace=wrap;html=1;fillColor=#d5e8d4;strokeColor=#82b366;strokeWidth=2;fontSize=16;" parent="VSLXQee4k8yGldD-n7jW-1" vertex="1">
                    <mxGeometry x="160" y="720" width="40" height="40" as="geometry"/>
                </mxCell>
                <mxCell id="wdlYfyDWpWnYxQa1Ixcr-6" value="v 0" style="rounded=0;whiteSpace=wrap;html=1;fillColor=#f8cecc;strokeColor=#b85450;strokeWidth=2;fontSize=16;horizontal=0;" parent="VSLXQee4k8yGldD-n7jW-1" vertex="1">
                    <mxGeometry x="60" y="770" width="20" height="70" as="geometry"/>
                </mxCell>
                <mxCell id="wdlYfyDWpWnYxQa1Ixcr-7" value="k 1" style="rounded=0;whiteSpace=wrap;html=1;fillColor=#fff2cc;strokeColor=#d6b656;strokeWidth=2;fontSize=16;horizontal=0;" parent="VSLXQee4k8yGldD-n7jW-1" vertex="1">
                    <mxGeometry x="80" y="770" width="20" height="70" as="geometry"/>
                </mxCell>
                <mxCell id="wdlYfyDWpWnYxQa1Ixcr-8" value="v 1" style="rounded=0;whiteSpace=wrap;html=1;fillColor=#f8cecc;strokeColor=#b85450;strokeWidth=2;fontSize=16;horizontal=0;" parent="VSLXQee4k8yGldD-n7jW-1" vertex="1">
                    <mxGeometry x="100" y="770" width="20" height="70" as="geometry"/>
                </mxCell>
                <mxCell id="wdlYfyDWpWnYxQa1Ixcr-9" value="k 2" style="rounded=0;whiteSpace=wrap;html=1;fillColor=#fff2cc;strokeColor=#d6b656;strokeWidth=2;fontSize=16;horizontal=0;" parent="VSLXQee4k8yGldD-n7jW-1" vertex="1">
                    <mxGeometry x="120" y="770" width="20" height="70" as="geometry"/>
                </mxCell>
                <mxCell id="wdlYfyDWpWnYxQa1Ixcr-10" value="v 2" style="rounded=0;whiteSpace=wrap;html=1;fillColor=#f8cecc;strokeColor=#b85450;strokeWidth=2;fontSize=16;horizontal=0;" parent="VSLXQee4k8yGldD-n7jW-1" vertex="1">
                    <mxGeometry x="140" y="770" width="20" height="70" as="geometry"/>
                </mxCell>
                <mxCell id="wdlYfyDWpWnYxQa1Ixcr-11" value="k 3" style="rounded=0;whiteSpace=wrap;html=1;fillColor=#fff2cc;strokeColor=#d6b656;strokeWidth=2;fontSize=16;horizontal=0;" parent="VSLXQee4k8yGldD-n7jW-1" vertex="1">
                    <mxGeometry x="160" y="770" width="20" height="70" as="geometry"/>
                </mxCell>
                <mxCell id="wdlYfyDWpWnYxQa1Ixcr-12" value="v 3" style="rounded=0;whiteSpace=wrap;html=1;fillColor=#f8cecc;strokeColor=#b85450;strokeWidth=2;fontSize=16;horizontal=0;" parent="VSLXQee4k8yGldD-n7jW-1" vertex="1">
                    <mxGeometry x="180" y="770" width="20" height="70" as="geometry"/>
                </mxCell>
                <mxCell id="wdlYfyDWpWnYxQa1Ixcr-13" value="page r0" style="rounded=0;whiteSpace=wrap;html=1;fillColor=#dae8fc;strokeColor=#6c8ebf;strokeWidth=2;fontSize=16;" parent="VSLXQee4k8yGldD-n7jW-1" vertex="1">
                    <mxGeometry x="400" y="440" width="160" height="40" as="geometry"/>
                </mxCell>
                <mxCell id="wdlYfyDWpWnYxQa1Ixcr-14" value="elem&lt;br&gt;0" style="rounded=0;whiteSpace=wrap;html=1;fillColor=#d5e8d4;strokeColor=#82b366;strokeWidth=2;fontSize=16;" parent="VSLXQee4k8yGldD-n7jW-1" vertex="1">
                    <mxGeometry x="400" y="480" width="40" height="40" as="geometry"/>
                </mxCell>
                <mxCell id="wdlYfyDWpWnYxQa1Ixcr-15" value="elem&lt;br&gt;1" style="rounded=0;whiteSpace=wrap;html=1;fillColor=#d5e8d4;strokeColor=#82b366;strokeWidth=2;fontSize=16;" parent="VSLXQee4k8yGldD-n7jW-1" vertex="1">
                    <mxGeometry x="440" y="480" width="40" height="40" as="geometry"/>
                </mxCell>
                <mxCell id="wdlYfyDWpWnYxQa1Ixcr-16" value="elem&lt;br&gt;2" style="rounded=0;whiteSpace=wrap;html=1;fillColor=#d5e8d4;strokeColor=#82b366;strokeWidth=2;fontSize=16;" parent="VSLXQee4k8yGldD-n7jW-1" vertex="1">
                    <mxGeometry x="480" y="480" width="40" height="40" as="geometry"/>
                </mxCell>
                <mxCell id="wdlYfyDWpWnYxQa1Ixcr-17" value="k 0" style="rounded=0;whiteSpace=wrap;html=1;fillColor=#fff2cc;strokeColor=#d6b656;strokeWidth=2;fontSize=16;horizontal=0;" parent="VSLXQee4k8yGldD-n7jW-1" vertex="1">
                    <mxGeometry x="400" y="530" width="40" height="70" as="geometry"/>
                </mxCell>
                <mxCell id="wdlYfyDWpWnYxQa1Ixcr-18" value="elem&lt;br&gt;3" style="rounded=0;whiteSpace=wrap;html=1;fillColor=#d5e8d4;strokeColor=#82b366;strokeWidth=2;fontSize=16;" parent="VSLXQee4k8yGldD-n7jW-1" vertex="1">
                    <mxGeometry x="520" y="480" width="40" height="40" as="geometry"/>
                </mxCell>
                <mxCell id="wdlYfyDWpWnYxQa1Ixcr-19" value="k 1" style="rounded=0;whiteSpace=wrap;html=1;fillColor=#fff2cc;strokeColor=#d6b656;strokeWidth=2;fontSize=16;horizontal=0;" parent="VSLXQee4k8yGldD-n7jW-1" vertex="1">
                    <mxGeometry x="440" y="530" width="40" height="70" as="geometry"/>
                </mxCell>
                <mxCell id="wdlYfyDWpWnYxQa1Ixcr-20" value="k 2" style="rounded=0;whiteSpace=wrap;html=1;fillColor=#fff2cc;strokeColor=#d6b656;strokeWidth=2;fontSize=16;horizontal=0;" parent="VSLXQee4k8yGldD-n7jW-1" vertex="1">
                    <mxGeometry x="480" y="530" width="40" height="70" as="geometry"/>
                </mxCell>
                <mxCell id="wdlYfyDWpWnYxQa1Ixcr-21" value="k 3" style="rounded=0;whiteSpace=wrap;html=1;fillColor=#fff2cc;strokeColor=#d6b656;strokeWidth=2;fontSize=16;horizontal=0;" parent="VSLXQee4k8yGldD-n7jW-1" vertex="1">
                    <mxGeometry x="520" y="530" width="40" height="70" as="geometry"/>
                </mxCell>
                <mxCell id="wdlYfyDWpWnYxQa1Ixcr-23" style="edgeStyle=orthogonalEdgeStyle;rounded=0;orthogonalLoop=1;jettySize=auto;html=1;exitX=0.5;exitY=1;exitDx=0;exitDy=0;curved=1;" parent="VSLXQee4k8yGldD-n7jW-1" source="wdlYfyDWpWnYxQa1Ixcr-14" target="wdlYfyDWpWnYxQa1Ixcr-0" edge="1">
                    <mxGeometry relative="1" as="geometry"/>
                </mxCell>
                <mxCell id="wdlYfyDWpWnYxQa1Ixcr-24" value="page l1" style="rounded=0;whiteSpace=wrap;html=1;fillColor=#dae8fc;strokeColor=#6c8ebf;strokeWidth=2;fontSize=16;" parent="VSLXQee4k8yGldD-n7jW-1" vertex="1">
                    <mxGeometry x="280" y="680" width="160" height="40" as="geometry"/>
                </mxCell>
                <mxCell id="wdlYfyDWpWnYxQa1Ixcr-25" value="elem&lt;br&gt;0" style="rounded=0;whiteSpace=wrap;html=1;fillColor=#d5e8d4;strokeColor=#82b366;strokeWidth=2;fontSize=16;" parent="VSLXQee4k8yGldD-n7jW-1" vertex="1">
                    <mxGeometry x="280" y="720" width="40" height="40" as="geometry"/>
                </mxCell>
                <mxCell id="wdlYfyDWpWnYxQa1Ixcr-26" value="elem&lt;br&gt;1" style="rounded=0;whiteSpace=wrap;html=1;fillColor=#d5e8d4;strokeColor=#82b366;strokeWidth=2;fontSize=16;" parent="VSLXQee4k8yGldD-n7jW-1" vertex="1">
                    <mxGeometry x="320" y="720" width="40" height="40" as="geometry"/>
                </mxCell>
                <mxCell id="wdlYfyDWpWnYxQa1Ixcr-27" value="elem&lt;br&gt;2" style="rounded=0;whiteSpace=wrap;html=1;fillColor=#d5e8d4;strokeColor=#82b366;strokeWidth=2;fontSize=16;" parent="VSLXQee4k8yGldD-n7jW-1" vertex="1">
                    <mxGeometry x="360" y="720" width="40" height="40" as="geometry"/>
                </mxCell>
                <mxCell id="wdlYfyDWpWnYxQa1Ixcr-28" value="k 0" style="rounded=0;whiteSpace=wrap;html=1;fillColor=#fff2cc;strokeColor=#d6b656;strokeWidth=2;fontSize=16;horizontal=0;" parent="VSLXQee4k8yGldD-n7jW-1" vertex="1">
                    <mxGeometry x="280" y="770" width="20" height="70" as="geometry"/>
                </mxCell>
                <mxCell id="wdlYfyDWpWnYxQa1Ixcr-29" value="elem&lt;br&gt;3" style="rounded=0;whiteSpace=wrap;html=1;fillColor=#d5e8d4;strokeColor=#82b366;strokeWidth=2;fontSize=16;" parent="VSLXQee4k8yGldD-n7jW-1" vertex="1">
                    <mxGeometry x="400" y="720" width="40" height="40" as="geometry"/>
                </mxCell>
                <mxCell id="wdlYfyDWpWnYxQa1Ixcr-30" value="v 0" style="rounded=0;whiteSpace=wrap;html=1;fillColor=#f8cecc;strokeColor=#b85450;strokeWidth=2;fontSize=16;horizontal=0;" parent="VSLXQee4k8yGldD-n7jW-1" vertex="1">
                    <mxGeometry x="300" y="770" width="20" height="70" as="geometry"/>
                </mxCell>
                <mxCell id="wdlYfyDWpWnYxQa1Ixcr-31" value="k 1" style="rounded=0;whiteSpace=wrap;html=1;fillColor=#fff2cc;strokeColor=#d6b656;strokeWidth=2;fontSize=16;horizontal=0;" parent="VSLXQee4k8yGldD-n7jW-1" vertex="1">
                    <mxGeometry x="320" y="770" width="20" height="70" as="geometry"/>
                </mxCell>
                <mxCell id="wdlYfyDWpWnYxQa1Ixcr-32" value="v 1" style="rounded=0;whiteSpace=wrap;html=1;fillColor=#f8cecc;strokeColor=#b85450;strokeWidth=2;fontSize=16;horizontal=0;" parent="VSLXQee4k8yGldD-n7jW-1" vertex="1">
                    <mxGeometry x="340" y="770" width="20" height="70" as="geometry"/>
                </mxCell>
                <mxCell id="wdlYfyDWpWnYxQa1Ixcr-33" value="k 2" style="rounded=0;whiteSpace=wrap;html=1;fillColor=#fff2cc;strokeColor=#d6b656;strokeWidth=2;fontSize=16;horizontal=0;" parent="VSLXQee4k8yGldD-n7jW-1" vertex="1">
                    <mxGeometry x="360" y="770" width="20" height="70" as="geometry"/>
                </mxCell>
                <mxCell id="wdlYfyDWpWnYxQa1Ixcr-34" value="v 2" style="rounded=0;whiteSpace=wrap;html=1;fillColor=#f8cecc;strokeColor=#b85450;strokeWidth=2;fontSize=16;horizontal=0;" parent="VSLXQee4k8yGldD-n7jW-1" vertex="1">
                    <mxGeometry x="380" y="770" width="20" height="70" as="geometry"/>
                </mxCell>
                <mxCell id="wdlYfyDWpWnYxQa1Ixcr-35" value="k 3" style="rounded=0;whiteSpace=wrap;html=1;fillColor=#fff2cc;strokeColor=#d6b656;strokeWidth=2;fontSize=16;horizontal=0;" parent="VSLXQee4k8yGldD-n7jW-1" vertex="1">
                    <mxGeometry x="400" y="770" width="20" height="70" as="geometry"/>
                </mxCell>
                <mxCell id="wdlYfyDWpWnYxQa1Ixcr-36" value="v 3" style="rounded=0;whiteSpace=wrap;html=1;fillColor=#f8cecc;strokeColor=#b85450;strokeWidth=2;fontSize=16;horizontal=0;" parent="VSLXQee4k8yGldD-n7jW-1" vertex="1">
                    <mxGeometry x="420" y="770" width="20" height="70" as="geometry"/>
                </mxCell>
                <mxCell id="wdlYfyDWpWnYxQa1Ixcr-37" value="page l2" style="rounded=0;whiteSpace=wrap;html=1;fillColor=#dae8fc;strokeColor=#6c8ebf;strokeWidth=2;fontSize=16;" parent="VSLXQee4k8yGldD-n7jW-1" vertex="1">
                    <mxGeometry x="520" y="680" width="160" height="40" as="geometry"/>
                </mxCell>
                <mxCell id="wdlYfyDWpWnYxQa1Ixcr-38" value="elem&lt;br&gt;0" style="rounded=0;whiteSpace=wrap;html=1;fillColor=#d5e8d4;strokeColor=#82b366;strokeWidth=2;fontSize=16;" parent="VSLXQee4k8yGldD-n7jW-1" vertex="1">
                    <mxGeometry x="520" y="720" width="40" height="40" as="geometry"/>
                </mxCell>
                <mxCell id="wdlYfyDWpWnYxQa1Ixcr-39" value="elem&lt;br&gt;1" style="rounded=0;whiteSpace=wrap;html=1;fillColor=#d5e8d4;strokeColor=#82b366;strokeWidth=2;fontSize=16;" parent="VSLXQee4k8yGldD-n7jW-1" vertex="1">
                    <mxGeometry x="560" y="720" width="40" height="40" as="geometry"/>
                </mxCell>
                <mxCell id="wdlYfyDWpWnYxQa1Ixcr-40" value="elem&lt;br&gt;2" style="rounded=0;whiteSpace=wrap;html=1;fillColor=#d5e8d4;strokeColor=#82b366;strokeWidth=2;fontSize=16;" parent="VSLXQee4k8yGldD-n7jW-1" vertex="1">
                    <mxGeometry x="600" y="720" width="40" height="40" as="geometry"/>
                </mxCell>
                <mxCell id="wdlYfyDWpWnYxQa1Ixcr-41" value="k 0" style="rounded=0;whiteSpace=wrap;html=1;fillColor=#fff2cc;strokeColor=#d6b656;strokeWidth=2;fontSize=16;horizontal=0;" parent="VSLXQee4k8yGldD-n7jW-1" vertex="1">
                    <mxGeometry x="520" y="770" width="20" height="70" as="geometry"/>
                </mxCell>
                <mxCell id="wdlYfyDWpWnYxQa1Ixcr-42" value="elem&lt;br&gt;3" style="rounded=0;whiteSpace=wrap;html=1;fillColor=#d5e8d4;strokeColor=#82b366;strokeWidth=2;fontSize=16;" parent="VSLXQee4k8yGldD-n7jW-1" vertex="1">
                    <mxGeometry x="640" y="720" width="40" height="40" as="geometry"/>
                </mxCell>
                <mxCell id="wdlYfyDWpWnYxQa1Ixcr-43" value="v 0" style="rounded=0;whiteSpace=wrap;html=1;fillColor=#f8cecc;strokeColor=#b85450;strokeWidth=2;fontSize=16;horizontal=0;" parent="VSLXQee4k8yGldD-n7jW-1" vertex="1">
                    <mxGeometry x="540" y="770" width="20" height="70" as="geometry"/>
                </mxCell>
                <mxCell id="wdlYfyDWpWnYxQa1Ixcr-44" value="k 1" style="rounded=0;whiteSpace=wrap;html=1;fillColor=#fff2cc;strokeColor=#d6b656;strokeWidth=2;fontSize=16;horizontal=0;" parent="VSLXQee4k8yGldD-n7jW-1" vertex="1">
                    <mxGeometry x="560" y="770" width="20" height="70" as="geometry"/>
                </mxCell>
                <mxCell id="wdlYfyDWpWnYxQa1Ixcr-45" value="v 1" style="rounded=0;whiteSpace=wrap;html=1;fillColor=#f8cecc;strokeColor=#b85450;strokeWidth=2;fontSize=16;horizontal=0;" parent="VSLXQee4k8yGldD-n7jW-1" vertex="1">
                    <mxGeometry x="580" y="770" width="20" height="70" as="geometry"/>
                </mxCell>
                <mxCell id="wdlYfyDWpWnYxQa1Ixcr-46" value="k 2" style="rounded=0;whiteSpace=wrap;html=1;fillColor=#fff2cc;strokeColor=#d6b656;strokeWidth=2;fontSize=16;horizontal=0;" parent="VSLXQee4k8yGldD-n7jW-1" vertex="1">
                    <mxGeometry x="600" y="770" width="20" height="70" as="geometry"/>
                </mxCell>
                <mxCell id="wdlYfyDWpWnYxQa1Ixcr-47" value="v 2" style="rounded=0;whiteSpace=wrap;html=1;fillColor=#f8cecc;strokeColor=#b85450;strokeWidth=2;fontSize=16;horizontal=0;" parent="VSLXQee4k8yGldD-n7jW-1" vertex="1">
                    <mxGeometry x="620" y="770" width="20" height="70" as="geometry"/>
                </mxCell>
                <mxCell id="wdlYfyDWpWnYxQa1Ixcr-48" value="k 3" style="rounded=0;whiteSpace=wrap;html=1;fillColor=#fff2cc;strokeColor=#d6b656;strokeWidth=2;fontSize=16;horizontal=0;" parent="VSLXQee4k8yGldD-n7jW-1" vertex="1">
                    <mxGeometry x="640" y="770" width="20" height="70" as="geometry"/>
                </mxCell>
                <mxCell id="wdlYfyDWpWnYxQa1Ixcr-49" value="v 3" style="rounded=0;whiteSpace=wrap;html=1;fillColor=#f8cecc;strokeColor=#b85450;strokeWidth=2;fontSize=16;horizontal=0;" parent="VSLXQee4k8yGldD-n7jW-1" vertex="1">
                    <mxGeometry x="660" y="770" width="20" height="70" as="geometry"/>
                </mxCell>
                <mxCell id="wdlYfyDWpWnYxQa1Ixcr-50" value="page l3" style="rounded=0;whiteSpace=wrap;html=1;fillColor=#dae8fc;strokeColor=#6c8ebf;strokeWidth=2;fontSize=16;" parent="VSLXQee4k8yGldD-n7jW-1" vertex="1">
                    <mxGeometry x="760" y="680" width="160" height="40" as="geometry"/>
                </mxCell>
                <mxCell id="wdlYfyDWpWnYxQa1Ixcr-51" value="elem&lt;br&gt;0" style="rounded=0;whiteSpace=wrap;html=1;fillColor=#d5e8d4;strokeColor=#82b366;strokeWidth=2;fontSize=16;" parent="VSLXQee4k8yGldD-n7jW-1" vertex="1">
                    <mxGeometry x="760" y="720" width="40" height="40" as="geometry"/>
                </mxCell>
                <mxCell id="wdlYfyDWpWnYxQa1Ixcr-52" value="elem&lt;br&gt;1" style="rounded=0;whiteSpace=wrap;html=1;fillColor=#d5e8d4;strokeColor=#82b366;strokeWidth=2;fontSize=16;" parent="VSLXQee4k8yGldD-n7jW-1" vertex="1">
                    <mxGeometry x="800" y="720" width="40" height="40" as="geometry"/>
                </mxCell>
                <mxCell id="wdlYfyDWpWnYxQa1Ixcr-53" value="elem&lt;br&gt;2" style="rounded=0;whiteSpace=wrap;html=1;fillColor=#d5e8d4;strokeColor=#82b366;strokeWidth=2;fontSize=16;" parent="VSLXQee4k8yGldD-n7jW-1" vertex="1">
                    <mxGeometry x="840" y="720" width="40" height="40" as="geometry"/>
                </mxCell>
                <mxCell id="wdlYfyDWpWnYxQa1Ixcr-54" value="k 0" style="rounded=0;whiteSpace=wrap;html=1;fillColor=#fff2cc;strokeColor=#d6b656;strokeWidth=2;fontSize=16;horizontal=0;" parent="VSLXQee4k8yGldD-n7jW-1" vertex="1">
                    <mxGeometry x="760" y="770" width="20" height="70" as="geometry"/>
                </mxCell>
                <mxCell id="wdlYfyDWpWnYxQa1Ixcr-55" value="elem&lt;br&gt;3" style="rounded=0;whiteSpace=wrap;html=1;fillColor=#d5e8d4;strokeColor=#82b366;strokeWidth=2;fontSize=16;" parent="VSLXQee4k8yGldD-n7jW-1" vertex="1">
                    <mxGeometry x="880" y="720" width="40" height="40" as="geometry"/>
                </mxCell>
                <mxCell id="wdlYfyDWpWnYxQa1Ixcr-56" value="v 0" style="rounded=0;whiteSpace=wrap;html=1;fillColor=#f8cecc;strokeColor=#b85450;strokeWidth=2;fontSize=16;horizontal=0;" parent="VSLXQee4k8yGldD-n7jW-1" vertex="1">
                    <mxGeometry x="780" y="770" width="20" height="70" as="geometry"/>
                </mxCell>
                <mxCell id="wdlYfyDWpWnYxQa1Ixcr-57" value="k 1" style="rounded=0;whiteSpace=wrap;html=1;fillColor=#fff2cc;strokeColor=#d6b656;strokeWidth=2;fontSize=16;horizontal=0;" parent="VSLXQee4k8yGldD-n7jW-1" vertex="1">
                    <mxGeometry x="800" y="770" width="20" height="70" as="geometry"/>
                </mxCell>
                <mxCell id="wdlYfyDWpWnYxQa1Ixcr-58" value="v 1" style="rounded=0;whiteSpace=wrap;html=1;fillColor=#f8cecc;strokeColor=#b85450;strokeWidth=2;fontSize=16;horizontal=0;" parent="VSLXQee4k8yGldD-n7jW-1" vertex="1">
                    <mxGeometry x="820" y="770" width="20" height="70" as="geometry"/>
                </mxCell>
                <mxCell id="wdlYfyDWpWnYxQa1Ixcr-59" value="k 2" style="rounded=0;whiteSpace=wrap;html=1;fillColor=#fff2cc;strokeColor=#d6b656;strokeWidth=2;fontSize=16;horizontal=0;" parent="VSLXQee4k8yGldD-n7jW-1" vertex="1">
                    <mxGeometry x="840" y="770" width="20" height="70" as="geometry"/>
                </mxCell>
                <mxCell id="wdlYfyDWpWnYxQa1Ixcr-60" value="v 2" style="rounded=0;whiteSpace=wrap;html=1;fillColor=#f8cecc;strokeColor=#b85450;strokeWidth=2;fontSize=16;horizontal=0;" parent="VSLXQee4k8yGldD-n7jW-1" vertex="1">
                    <mxGeometry x="860" y="770" width="20" height="70" as="geometry"/>
                </mxCell>
                <mxCell id="wdlYfyDWpWnYxQa1Ixcr-61" value="k 3" style="rounded=0;whiteSpace=wrap;html=1;fillColor=#fff2cc;strokeColor=#d6b656;strokeWidth=2;fontSize=16;horizontal=0;" parent="VSLXQee4k8yGldD-n7jW-1" vertex="1">
                    <mxGeometry x="880" y="770" width="20" height="70" as="geometry"/>
                </mxCell>
                <mxCell id="wdlYfyDWpWnYxQa1Ixcr-62" value="v 3" style="rounded=0;whiteSpace=wrap;html=1;fillColor=#f8cecc;strokeColor=#b85450;strokeWidth=2;fontSize=16;horizontal=0;" parent="VSLXQee4k8yGldD-n7jW-1" vertex="1">
                    <mxGeometry x="900" y="770" width="20" height="70" as="geometry"/>
                </mxCell>
                <mxCell id="wdlYfyDWpWnYxQa1Ixcr-63" style="edgeStyle=orthogonalEdgeStyle;curved=1;rounded=0;orthogonalLoop=1;jettySize=auto;html=1;exitX=0.5;exitY=1;exitDx=0;exitDy=0;entryX=0.5;entryY=0;entryDx=0;entryDy=0;" parent="VSLXQee4k8yGldD-n7jW-1" source="wdlYfyDWpWnYxQa1Ixcr-15" target="wdlYfyDWpWnYxQa1Ixcr-24" edge="1">
                    <mxGeometry relative="1" as="geometry"/>
                </mxCell>
                <mxCell id="wdlYfyDWpWnYxQa1Ixcr-64" style="edgeStyle=orthogonalEdgeStyle;curved=1;rounded=0;orthogonalLoop=1;jettySize=auto;html=1;exitX=0.5;exitY=1;exitDx=0;exitDy=0;entryX=0.5;entryY=0;entryDx=0;entryDy=0;" parent="VSLXQee4k8yGldD-n7jW-1" source="wdlYfyDWpWnYxQa1Ixcr-16" target="wdlYfyDWpWnYxQa1Ixcr-37" edge="1">
                    <mxGeometry relative="1" as="geometry"/>
                </mxCell>
                <mxCell id="wdlYfyDWpWnYxQa1Ixcr-65" style="edgeStyle=orthogonalEdgeStyle;curved=1;rounded=0;orthogonalLoop=1;jettySize=auto;html=1;exitX=0.5;exitY=1;exitDx=0;exitDy=0;" parent="VSLXQee4k8yGldD-n7jW-1" source="wdlYfyDWpWnYxQa1Ixcr-18" target="wdlYfyDWpWnYxQa1Ixcr-50" edge="1">
                    <mxGeometry relative="1" as="geometry"/>
                </mxCell>
            </root>
        </mxGraphModel>
    </diagram>
    <diagram id="QINe2VchV_cw-gC0sYd9" name="bucket">
        <mxGraphModel dx="1054" dy="617" grid="1" gridSize="10" guides="1" tooltips="1" connect="1" arrows="1" fold="1" page="1" pageScale="1" pageWidth="827" pageHeight="1169" background="#ffffff" math="0" shadow="0">
            <root>
                <mxCell id="myQzrPnXHIYmsb6tpw2v-0"/>
                <mxCell id="myQzrPnXHIYmsb6tpw2v-1" parent="myQzrPnXHIYmsb6tpw2v-0"/>
                <mxCell id="tKheorRfXeAPOl9HRJ6v-10" style="edgeStyle=orthogonalEdgeStyle;curved=1;rounded=0;orthogonalLoop=1;jettySize=auto;html=1;exitX=0.25;exitY=1;exitDx=0;exitDy=0;entryX=0.5;entryY=0;entryDx=0;entryDy=0;dashed=1;" parent="myQzrPnXHIYmsb6tpw2v-1" source="tKheorRfXeAPOl9HRJ6v-0" target="tKheorRfXeAPOl9HRJ6v-1" edge="1">
                    <mxGeometry relative="1" as="geometry"/>
                </mxCell>
                <mxCell id="tKheorRfXeAPOl9HRJ6v-11" style="edgeStyle=orthogonalEdgeStyle;curved=1;rounded=0;orthogonalLoop=1;jettySize=auto;html=1;exitX=0.75;exitY=1;exitDx=0;exitDy=0;entryX=0.5;entryY=0;entryDx=0;entryDy=0;dashed=1;" parent="myQzrPnXHIYmsb6tpw2v-1" source="tKheorRfXeAPOl9HRJ6v-0" target="tKheorRfXeAPOl9HRJ6v-3" edge="1">
                    <mxGeometry relative="1" as="geometry"/>
                </mxCell>
                <mxCell id="tKheorRfXeAPOl9HRJ6v-0" value="bucket&lt;br&gt;root" style="rounded=0;whiteSpace=wrap;html=1;fillColor=#dae8fc;strokeColor=#6c8ebf;strokeWidth=2;fontSize=16;" parent="myQzrPnXHIYmsb6tpw2v-1" vertex="1">
                    <mxGeometry x="360" y="360" width="80" height="80" as="geometry"/>
                </mxCell>
                <mxCell id="tKheorRfXeAPOl9HRJ6v-12" style="edgeStyle=orthogonalEdgeStyle;curved=1;rounded=0;orthogonalLoop=1;jettySize=auto;html=1;exitX=0.25;exitY=1;exitDx=0;exitDy=0;entryX=0.5;entryY=0;entryDx=0;entryDy=0;dashed=1;" parent="myQzrPnXHIYmsb6tpw2v-1" source="tKheorRfXeAPOl9HRJ6v-1" target="tKheorRfXeAPOl9HRJ6v-5" edge="1">
                    <mxGeometry relative="1" as="geometry"/>
                </mxCell>
                <mxCell id="tKheorRfXeAPOl9HRJ6v-13" style="edgeStyle=orthogonalEdgeStyle;curved=1;rounded=0;orthogonalLoop=1;jettySize=auto;html=1;exitX=0.75;exitY=1;exitDx=0;exitDy=0;entryX=0.5;entryY=0;entryDx=0;entryDy=0;dashed=1;" parent="myQzrPnXHIYmsb6tpw2v-1" source="tKheorRfXeAPOl9HRJ6v-1" target="tKheorRfXeAPOl9HRJ6v-7" edge="1">
                    <mxGeometry relative="1" as="geometry"/>
                </mxCell>
                <mxCell id="tKheorRfXeAPOl9HRJ6v-15" style="edgeStyle=orthogonalEdgeStyle;curved=1;rounded=0;orthogonalLoop=1;jettySize=auto;html=1;exitX=0.5;exitY=1;exitDx=0;exitDy=0;entryX=0.5;entryY=0;entryDx=0;entryDy=0;dashed=1;" parent="myQzrPnXHIYmsb6tpw2v-1" source="tKheorRfXeAPOl9HRJ6v-1" target="tKheorRfXeAPOl9HRJ6v-14" edge="1">
                    <mxGeometry relative="1" as="geometry"/>
                </mxCell>
                <mxCell id="tKheorRfXeAPOl9HRJ6v-1" value="bucket&lt;br&gt;a1" style="rounded=0;whiteSpace=wrap;html=1;fillColor=#dae8fc;strokeColor=#6c8ebf;strokeWidth=2;fontSize=16;" parent="myQzrPnXHIYmsb6tpw2v-1" vertex="1">
                    <mxGeometry x="200" y="480" width="80" height="80" as="geometry"/>
                </mxCell>
                <mxCell id="tKheorRfXeAPOl9HRJ6v-3" value="bucket&lt;br&gt;a2" style="rounded=0;whiteSpace=wrap;html=1;fillColor=#dae8fc;strokeColor=#6c8ebf;strokeWidth=2;fontSize=16;" parent="myQzrPnXHIYmsb6tpw2v-1" vertex="1">
                    <mxGeometry x="520" y="480" width="80" height="80" as="geometry"/>
                </mxCell>
                <mxCell id="tKheorRfXeAPOl9HRJ6v-5" value="bucket&lt;br&gt;b1" style="rounded=0;whiteSpace=wrap;html=1;fillColor=#dae8fc;strokeColor=#6c8ebf;strokeWidth=2;fontSize=16;" parent="myQzrPnXHIYmsb6tpw2v-1" vertex="1">
                    <mxGeometry x="40" y="600" width="80" height="80" as="geometry"/>
                </mxCell>
                <mxCell id="tKheorRfXeAPOl9HRJ6v-7" value="bucket&lt;br&gt;b3" style="rounded=0;whiteSpace=wrap;html=1;fillColor=#dae8fc;strokeColor=#6c8ebf;strokeWidth=2;fontSize=16;" parent="myQzrPnXHIYmsb6tpw2v-1" vertex="1">
                    <mxGeometry x="360" y="600" width="80" height="80" as="geometry"/>
                </mxCell>
                <mxCell id="tKheorRfXeAPOl9HRJ6v-14" value="bucket&lt;br&gt;b2" style="rounded=0;whiteSpace=wrap;html=1;fillColor=#dae8fc;strokeColor=#6c8ebf;strokeWidth=2;fontSize=16;" parent="myQzrPnXHIYmsb6tpw2v-1" vertex="1">
                    <mxGeometry x="200" y="600" width="80" height="80" as="geometry"/>
                </mxCell>
                <mxCell id="e9Io0Kl1y7YEzKTHVS_V-1" style="edgeStyle=orthogonalEdgeStyle;curved=1;rounded=0;orthogonalLoop=1;jettySize=auto;html=1;exitX=0.5;exitY=1;exitDx=0;exitDy=0;entryX=0.5;entryY=0;entryDx=0;entryDy=0;dashed=1;fontSize=16;" parent="myQzrPnXHIYmsb6tpw2v-1" source="e9Io0Kl1y7YEzKTHVS_V-0" target="tKheorRfXeAPOl9HRJ6v-0" edge="1">
                    <mxGeometry relative="1" as="geometry"/>
                </mxCell>
                <mxCell id="e9Io0Kl1y7YEzKTHVS_V-0" value="meta.root" style="rounded=0;whiteSpace=wrap;html=1;fillColor=#fff2cc;strokeColor=#d6b656;strokeWidth=2;fontSize=16;" parent="myQzrPnXHIYmsb6tpw2v-1" vertex="1">
                    <mxGeometry x="360" y="280" width="80" height="40" as="geometry"/>
                </mxCell>
            </root>
        </mxGraphModel>
    </diagram>
    <diagram id="6Dr7rHHMnk1bP9pWBOxg" name="bucket vs B+Tree">
        <mxGraphModel dx="1757" dy="2197" grid="1" gridSize="10" guides="1" tooltips="1" connect="1" arrows="1" fold="1" page="1" pageScale="1" pageWidth="827" pageHeight="1169" background="#ffffff" math="0" shadow="0">
            <root>
                <mxCell id="g8rNYsrk2wVaHTUvxYKV-0"/>
                <mxCell id="g8rNYsrk2wVaHTUvxYKV-1" parent="g8rNYsrk2wVaHTUvxYKV-0"/>
                <mxCell id="td4NYP-ENdZDlqvNvc2s-197" value="" style="group" parent="g8rNYsrk2wVaHTUvxYKV-1" vertex="1" connectable="0">
                    <mxGeometry x="40" y="520" width="880" height="400" as="geometry"/>
                </mxCell>
                <mxCell id="td4NYP-ENdZDlqvNvc2s-0" value="page l4" style="rounded=0;whiteSpace=wrap;html=1;fillColor=#dae8fc;strokeColor=#6c8ebf;strokeWidth=2;fontSize=16;" parent="td4NYP-ENdZDlqvNvc2s-197" vertex="1">
                    <mxGeometry y="240" width="160" height="40" as="geometry"/>
                </mxCell>
                <mxCell id="td4NYP-ENdZDlqvNvc2s-1" value="elem&lt;br&gt;0" style="rounded=0;whiteSpace=wrap;html=1;fillColor=#d5e8d4;strokeColor=#82b366;strokeWidth=2;fontSize=16;" parent="td4NYP-ENdZDlqvNvc2s-197" vertex="1">
                    <mxGeometry y="280" width="40" height="40" as="geometry"/>
                </mxCell>
                <mxCell id="td4NYP-ENdZDlqvNvc2s-2" value="elem&lt;br&gt;1" style="rounded=0;whiteSpace=wrap;html=1;fillColor=#d5e8d4;strokeColor=#82b366;strokeWidth=2;fontSize=16;" parent="td4NYP-ENdZDlqvNvc2s-197" vertex="1">
                    <mxGeometry x="40" y="280" width="40" height="40" as="geometry"/>
                </mxCell>
                <mxCell id="td4NYP-ENdZDlqvNvc2s-3" value="elem&lt;br&gt;2" style="rounded=0;whiteSpace=wrap;html=1;fillColor=#d5e8d4;strokeColor=#82b366;strokeWidth=2;fontSize=16;" parent="td4NYP-ENdZDlqvNvc2s-197" vertex="1">
                    <mxGeometry x="80" y="280" width="40" height="40" as="geometry"/>
                </mxCell>
                <mxCell id="td4NYP-ENdZDlqvNvc2s-4" value="k 0" style="rounded=0;whiteSpace=wrap;html=1;fillColor=#fff2cc;strokeColor=#d6b656;strokeWidth=2;fontSize=16;horizontal=0;" parent="td4NYP-ENdZDlqvNvc2s-197" vertex="1">
                    <mxGeometry y="330" width="20" height="70" as="geometry"/>
                </mxCell>
                <mxCell id="td4NYP-ENdZDlqvNvc2s-5" value="elem&lt;br&gt;3" style="rounded=0;whiteSpace=wrap;html=1;fillColor=#d5e8d4;strokeColor=#82b366;strokeWidth=2;fontSize=16;" parent="td4NYP-ENdZDlqvNvc2s-197" vertex="1">
                    <mxGeometry x="120" y="280" width="40" height="40" as="geometry"/>
                </mxCell>
                <mxCell id="td4NYP-ENdZDlqvNvc2s-6" value="v 0" style="rounded=0;whiteSpace=wrap;html=1;fillColor=#f8cecc;strokeColor=#b85450;strokeWidth=2;fontSize=16;horizontal=0;" parent="td4NYP-ENdZDlqvNvc2s-197" vertex="1">
                    <mxGeometry x="20" y="330" width="20" height="70" as="geometry"/>
                </mxCell>
                <mxCell id="td4NYP-ENdZDlqvNvc2s-7" value="k 1" style="rounded=0;whiteSpace=wrap;html=1;fillColor=#fff2cc;strokeColor=#d6b656;strokeWidth=2;fontSize=16;horizontal=0;" parent="td4NYP-ENdZDlqvNvc2s-197" vertex="1">
                    <mxGeometry x="40" y="330" width="20" height="70" as="geometry"/>
                </mxCell>
                <mxCell id="td4NYP-ENdZDlqvNvc2s-8" value="v 1" style="rounded=0;whiteSpace=wrap;html=1;fillColor=#f8cecc;strokeColor=#b85450;strokeWidth=2;fontSize=16;horizontal=0;" parent="td4NYP-ENdZDlqvNvc2s-197" vertex="1">
                    <mxGeometry x="60" y="330" width="20" height="70" as="geometry"/>
                </mxCell>
                <mxCell id="td4NYP-ENdZDlqvNvc2s-9" value="k 2" style="rounded=0;whiteSpace=wrap;html=1;fillColor=#fff2cc;strokeColor=#d6b656;strokeWidth=2;fontSize=16;horizontal=0;" parent="td4NYP-ENdZDlqvNvc2s-197" vertex="1">
                    <mxGeometry x="80" y="330" width="20" height="70" as="geometry"/>
                </mxCell>
                <mxCell id="td4NYP-ENdZDlqvNvc2s-10" value="v 2" style="rounded=0;whiteSpace=wrap;html=1;fillColor=#f8cecc;strokeColor=#b85450;strokeWidth=2;fontSize=16;horizontal=0;" parent="td4NYP-ENdZDlqvNvc2s-197" vertex="1">
                    <mxGeometry x="100" y="330" width="20" height="70" as="geometry"/>
                </mxCell>
                <mxCell id="td4NYP-ENdZDlqvNvc2s-11" value="k 3" style="rounded=0;whiteSpace=wrap;html=1;fillColor=#fff2cc;strokeColor=#d6b656;strokeWidth=2;fontSize=16;horizontal=0;" parent="td4NYP-ENdZDlqvNvc2s-197" vertex="1">
                    <mxGeometry x="120" y="330" width="20" height="70" as="geometry"/>
                </mxCell>
                <mxCell id="td4NYP-ENdZDlqvNvc2s-12" value="v 3" style="rounded=0;whiteSpace=wrap;html=1;fillColor=#f8cecc;strokeColor=#b85450;strokeWidth=2;fontSize=16;horizontal=0;" parent="td4NYP-ENdZDlqvNvc2s-197" vertex="1">
                    <mxGeometry x="140" y="330" width="20" height="70" as="geometry"/>
                </mxCell>
                <mxCell id="td4NYP-ENdZDlqvNvc2s-13" value="page r1" style="rounded=0;whiteSpace=wrap;html=1;fillColor=#dae8fc;strokeColor=#6c8ebf;strokeWidth=2;fontSize=16;" parent="td4NYP-ENdZDlqvNvc2s-197" vertex="1">
                    <mxGeometry x="360" width="160" height="40" as="geometry"/>
                </mxCell>
                <mxCell id="td4NYP-ENdZDlqvNvc2s-14" value="elem&lt;br&gt;0" style="rounded=0;whiteSpace=wrap;html=1;fillColor=#d5e8d4;strokeColor=#82b366;strokeWidth=2;fontSize=16;" parent="td4NYP-ENdZDlqvNvc2s-197" vertex="1">
                    <mxGeometry x="360" y="40" width="40" height="40" as="geometry"/>
                </mxCell>
                <mxCell id="td4NYP-ENdZDlqvNvc2s-15" value="elem&lt;br&gt;1" style="rounded=0;whiteSpace=wrap;html=1;fillColor=#d5e8d4;strokeColor=#82b366;strokeWidth=2;fontSize=16;" parent="td4NYP-ENdZDlqvNvc2s-197" vertex="1">
                    <mxGeometry x="400" y="40" width="40" height="40" as="geometry"/>
                </mxCell>
                <mxCell id="td4NYP-ENdZDlqvNvc2s-16" value="elem&lt;br&gt;2" style="rounded=0;whiteSpace=wrap;html=1;fillColor=#d5e8d4;strokeColor=#82b366;strokeWidth=2;fontSize=16;" parent="td4NYP-ENdZDlqvNvc2s-197" vertex="1">
                    <mxGeometry x="440" y="40" width="40" height="40" as="geometry"/>
                </mxCell>
                <mxCell id="td4NYP-ENdZDlqvNvc2s-17" value="k 0" style="rounded=0;whiteSpace=wrap;html=1;fillColor=#fff2cc;strokeColor=#d6b656;strokeWidth=2;fontSize=16;horizontal=0;" parent="td4NYP-ENdZDlqvNvc2s-197" vertex="1">
                    <mxGeometry x="360" y="90" width="40" height="70" as="geometry"/>
                </mxCell>
                <mxCell id="td4NYP-ENdZDlqvNvc2s-18" value="elem&lt;br&gt;3" style="rounded=0;whiteSpace=wrap;html=1;fillColor=#d5e8d4;strokeColor=#82b366;strokeWidth=2;fontSize=16;" parent="td4NYP-ENdZDlqvNvc2s-197" vertex="1">
                    <mxGeometry x="480" y="40" width="40" height="40" as="geometry"/>
                </mxCell>
                <mxCell id="td4NYP-ENdZDlqvNvc2s-19" value="k 1" style="rounded=0;whiteSpace=wrap;html=1;fillColor=#fff2cc;strokeColor=#d6b656;strokeWidth=2;fontSize=16;horizontal=0;" parent="td4NYP-ENdZDlqvNvc2s-197" vertex="1">
                    <mxGeometry x="400" y="90" width="40" height="70" as="geometry"/>
                </mxCell>
                <mxCell id="td4NYP-ENdZDlqvNvc2s-20" value="k 2" style="rounded=0;whiteSpace=wrap;html=1;fillColor=#fff2cc;strokeColor=#d6b656;strokeWidth=2;fontSize=16;horizontal=0;" parent="td4NYP-ENdZDlqvNvc2s-197" vertex="1">
                    <mxGeometry x="440" y="90" width="40" height="70" as="geometry"/>
                </mxCell>
                <mxCell id="td4NYP-ENdZDlqvNvc2s-21" value="k 3" style="rounded=0;whiteSpace=wrap;html=1;fillColor=#fff2cc;strokeColor=#d6b656;strokeWidth=2;fontSize=16;horizontal=0;" parent="td4NYP-ENdZDlqvNvc2s-197" vertex="1">
                    <mxGeometry x="480" y="90" width="40" height="70" as="geometry"/>
                </mxCell>
                <mxCell id="td4NYP-ENdZDlqvNvc2s-22" style="edgeStyle=orthogonalEdgeStyle;rounded=0;orthogonalLoop=1;jettySize=auto;html=1;exitX=0.5;exitY=1;exitDx=0;exitDy=0;curved=1;" parent="td4NYP-ENdZDlqvNvc2s-197" source="td4NYP-ENdZDlqvNvc2s-14" target="td4NYP-ENdZDlqvNvc2s-0" edge="1">
                    <mxGeometry relative="1" as="geometry"/>
                </mxCell>
                <mxCell id="td4NYP-ENdZDlqvNvc2s-23" value="page l5" style="rounded=0;whiteSpace=wrap;html=1;fillColor=#dae8fc;strokeColor=#6c8ebf;strokeWidth=2;fontSize=16;" parent="td4NYP-ENdZDlqvNvc2s-197" vertex="1">
                    <mxGeometry x="240" y="240" width="160" height="40" as="geometry"/>
                </mxCell>
                <mxCell id="td4NYP-ENdZDlqvNvc2s-24" value="elem&lt;br&gt;0" style="rounded=0;whiteSpace=wrap;html=1;fillColor=#d5e8d4;strokeColor=#82b366;strokeWidth=2;fontSize=16;" parent="td4NYP-ENdZDlqvNvc2s-197" vertex="1">
                    <mxGeometry x="240" y="280" width="40" height="40" as="geometry"/>
                </mxCell>
                <mxCell id="td4NYP-ENdZDlqvNvc2s-25" value="elem&lt;br&gt;1" style="rounded=0;whiteSpace=wrap;html=1;fillColor=#d5e8d4;strokeColor=#82b366;strokeWidth=2;fontSize=16;" parent="td4NYP-ENdZDlqvNvc2s-197" vertex="1">
                    <mxGeometry x="280" y="280" width="40" height="40" as="geometry"/>
                </mxCell>
                <mxCell id="td4NYP-ENdZDlqvNvc2s-26" value="elem&lt;br&gt;2" style="rounded=0;whiteSpace=wrap;html=1;fillColor=#d5e8d4;strokeColor=#82b366;strokeWidth=2;fontSize=16;" parent="td4NYP-ENdZDlqvNvc2s-197" vertex="1">
                    <mxGeometry x="320" y="280" width="40" height="40" as="geometry"/>
                </mxCell>
                <mxCell id="td4NYP-ENdZDlqvNvc2s-27" value="k 0" style="rounded=0;whiteSpace=wrap;html=1;fillColor=#fff2cc;strokeColor=#d6b656;strokeWidth=2;fontSize=16;horizontal=0;" parent="td4NYP-ENdZDlqvNvc2s-197" vertex="1">
                    <mxGeometry x="240" y="330" width="20" height="70" as="geometry"/>
                </mxCell>
                <mxCell id="td4NYP-ENdZDlqvNvc2s-28" value="elem&lt;br&gt;3" style="rounded=0;whiteSpace=wrap;html=1;fillColor=#d5e8d4;strokeColor=#82b366;strokeWidth=2;fontSize=16;" parent="td4NYP-ENdZDlqvNvc2s-197" vertex="1">
                    <mxGeometry x="360" y="280" width="40" height="40" as="geometry"/>
                </mxCell>
                <mxCell id="td4NYP-ENdZDlqvNvc2s-29" value="v 0" style="rounded=0;whiteSpace=wrap;html=1;fillColor=#f8cecc;strokeColor=#b85450;strokeWidth=2;fontSize=16;horizontal=0;" parent="td4NYP-ENdZDlqvNvc2s-197" vertex="1">
                    <mxGeometry x="260" y="330" width="20" height="70" as="geometry"/>
                </mxCell>
                <mxCell id="td4NYP-ENdZDlqvNvc2s-30" value="k 1" style="rounded=0;whiteSpace=wrap;html=1;fillColor=#fff2cc;strokeColor=#d6b656;strokeWidth=2;fontSize=16;horizontal=0;" parent="td4NYP-ENdZDlqvNvc2s-197" vertex="1">
                    <mxGeometry x="280" y="330" width="20" height="70" as="geometry"/>
                </mxCell>
                <mxCell id="td4NYP-ENdZDlqvNvc2s-31" value="v 1" style="rounded=0;whiteSpace=wrap;html=1;fillColor=#f8cecc;strokeColor=#b85450;strokeWidth=2;fontSize=16;horizontal=0;" parent="td4NYP-ENdZDlqvNvc2s-197" vertex="1">
                    <mxGeometry x="300" y="330" width="20" height="70" as="geometry"/>
                </mxCell>
                <mxCell id="td4NYP-ENdZDlqvNvc2s-32" value="k 2" style="rounded=0;whiteSpace=wrap;html=1;fillColor=#fff2cc;strokeColor=#d6b656;strokeWidth=2;fontSize=16;horizontal=0;" parent="td4NYP-ENdZDlqvNvc2s-197" vertex="1">
                    <mxGeometry x="320" y="330" width="20" height="70" as="geometry"/>
                </mxCell>
                <mxCell id="td4NYP-ENdZDlqvNvc2s-33" value="v 2" style="rounded=0;whiteSpace=wrap;html=1;fillColor=#f8cecc;strokeColor=#b85450;strokeWidth=2;fontSize=16;horizontal=0;" parent="td4NYP-ENdZDlqvNvc2s-197" vertex="1">
                    <mxGeometry x="340" y="330" width="20" height="70" as="geometry"/>
                </mxCell>
                <mxCell id="td4NYP-ENdZDlqvNvc2s-34" value="k 3" style="rounded=0;whiteSpace=wrap;html=1;fillColor=#fff2cc;strokeColor=#d6b656;strokeWidth=2;fontSize=16;horizontal=0;" parent="td4NYP-ENdZDlqvNvc2s-197" vertex="1">
                    <mxGeometry x="360" y="330" width="20" height="70" as="geometry"/>
                </mxCell>
                <mxCell id="td4NYP-ENdZDlqvNvc2s-35" value="v 3" style="rounded=0;whiteSpace=wrap;html=1;fillColor=#f8cecc;strokeColor=#b85450;strokeWidth=2;fontSize=16;horizontal=0;" parent="td4NYP-ENdZDlqvNvc2s-197" vertex="1">
                    <mxGeometry x="380" y="330" width="20" height="70" as="geometry"/>
                </mxCell>
                <mxCell id="td4NYP-ENdZDlqvNvc2s-36" value="page l6" style="rounded=0;whiteSpace=wrap;html=1;fillColor=#dae8fc;strokeColor=#6c8ebf;strokeWidth=2;fontSize=16;" parent="td4NYP-ENdZDlqvNvc2s-197" vertex="1">
                    <mxGeometry x="480" y="240" width="160" height="40" as="geometry"/>
                </mxCell>
                <mxCell id="td4NYP-ENdZDlqvNvc2s-37" value="elem&lt;br&gt;0" style="rounded=0;whiteSpace=wrap;html=1;fillColor=#d5e8d4;strokeColor=#82b366;strokeWidth=2;fontSize=16;" parent="td4NYP-ENdZDlqvNvc2s-197" vertex="1">
                    <mxGeometry x="480" y="280" width="40" height="40" as="geometry"/>
                </mxCell>
                <mxCell id="td4NYP-ENdZDlqvNvc2s-38" value="elem&lt;br&gt;1" style="rounded=0;whiteSpace=wrap;html=1;fillColor=#d5e8d4;strokeColor=#82b366;strokeWidth=2;fontSize=16;" parent="td4NYP-ENdZDlqvNvc2s-197" vertex="1">
                    <mxGeometry x="520" y="280" width="40" height="40" as="geometry"/>
                </mxCell>
                <mxCell id="td4NYP-ENdZDlqvNvc2s-39" value="elem&lt;br&gt;2" style="rounded=0;whiteSpace=wrap;html=1;fillColor=#d5e8d4;strokeColor=#82b366;strokeWidth=2;fontSize=16;" parent="td4NYP-ENdZDlqvNvc2s-197" vertex="1">
                    <mxGeometry x="560" y="280" width="40" height="40" as="geometry"/>
                </mxCell>
                <mxCell id="td4NYP-ENdZDlqvNvc2s-40" value="k 0" style="rounded=0;whiteSpace=wrap;html=1;fillColor=#fff2cc;strokeColor=#d6b656;strokeWidth=2;fontSize=16;horizontal=0;" parent="td4NYP-ENdZDlqvNvc2s-197" vertex="1">
                    <mxGeometry x="480" y="330" width="20" height="70" as="geometry"/>
                </mxCell>
                <mxCell id="td4NYP-ENdZDlqvNvc2s-41" value="elem&lt;br&gt;3" style="rounded=0;whiteSpace=wrap;html=1;fillColor=#d5e8d4;strokeColor=#82b366;strokeWidth=2;fontSize=16;" parent="td4NYP-ENdZDlqvNvc2s-197" vertex="1">
                    <mxGeometry x="600" y="280" width="40" height="40" as="geometry"/>
                </mxCell>
                <mxCell id="td4NYP-ENdZDlqvNvc2s-42" value="v 0" style="rounded=0;whiteSpace=wrap;html=1;fillColor=#f8cecc;strokeColor=#b85450;strokeWidth=2;fontSize=16;horizontal=0;" parent="td4NYP-ENdZDlqvNvc2s-197" vertex="1">
                    <mxGeometry x="500" y="330" width="20" height="70" as="geometry"/>
                </mxCell>
                <mxCell id="td4NYP-ENdZDlqvNvc2s-43" value="k 1" style="rounded=0;whiteSpace=wrap;html=1;fillColor=#fff2cc;strokeColor=#d6b656;strokeWidth=2;fontSize=16;horizontal=0;" parent="td4NYP-ENdZDlqvNvc2s-197" vertex="1">
                    <mxGeometry x="520" y="330" width="20" height="70" as="geometry"/>
                </mxCell>
                <mxCell id="td4NYP-ENdZDlqvNvc2s-44" value="v 1" style="rounded=0;whiteSpace=wrap;html=1;fillColor=#f8cecc;strokeColor=#b85450;strokeWidth=2;fontSize=16;horizontal=0;" parent="td4NYP-ENdZDlqvNvc2s-197" vertex="1">
                    <mxGeometry x="540" y="330" width="20" height="70" as="geometry"/>
                </mxCell>
                <mxCell id="td4NYP-ENdZDlqvNvc2s-45" value="k 2" style="rounded=0;whiteSpace=wrap;html=1;fillColor=#fff2cc;strokeColor=#d6b656;strokeWidth=2;fontSize=16;horizontal=0;" parent="td4NYP-ENdZDlqvNvc2s-197" vertex="1">
                    <mxGeometry x="560" y="330" width="20" height="70" as="geometry"/>
                </mxCell>
                <mxCell id="td4NYP-ENdZDlqvNvc2s-46" value="v 2" style="rounded=0;whiteSpace=wrap;html=1;fillColor=#f8cecc;strokeColor=#b85450;strokeWidth=2;fontSize=16;horizontal=0;" parent="td4NYP-ENdZDlqvNvc2s-197" vertex="1">
                    <mxGeometry x="580" y="330" width="20" height="70" as="geometry"/>
                </mxCell>
                <mxCell id="td4NYP-ENdZDlqvNvc2s-47" value="k 3" style="rounded=0;whiteSpace=wrap;html=1;fillColor=#fff2cc;strokeColor=#d6b656;strokeWidth=2;fontSize=16;horizontal=0;" parent="td4NYP-ENdZDlqvNvc2s-197" vertex="1">
                    <mxGeometry x="600" y="330" width="20" height="70" as="geometry"/>
                </mxCell>
                <mxCell id="td4NYP-ENdZDlqvNvc2s-48" value="v 3" style="rounded=0;whiteSpace=wrap;html=1;fillColor=#f8cecc;strokeColor=#b85450;strokeWidth=2;fontSize=16;horizontal=0;" parent="td4NYP-ENdZDlqvNvc2s-197" vertex="1">
                    <mxGeometry x="620" y="330" width="20" height="70" as="geometry"/>
                </mxCell>
                <mxCell id="td4NYP-ENdZDlqvNvc2s-49" value="page l7" style="rounded=0;whiteSpace=wrap;html=1;fillColor=#dae8fc;strokeColor=#6c8ebf;strokeWidth=2;fontSize=16;" parent="td4NYP-ENdZDlqvNvc2s-197" vertex="1">
                    <mxGeometry x="720" y="240" width="160" height="40" as="geometry"/>
                </mxCell>
                <mxCell id="td4NYP-ENdZDlqvNvc2s-50" value="elem&lt;br&gt;0" style="rounded=0;whiteSpace=wrap;html=1;fillColor=#d5e8d4;strokeColor=#82b366;strokeWidth=2;fontSize=16;" parent="td4NYP-ENdZDlqvNvc2s-197" vertex="1">
                    <mxGeometry x="720" y="280" width="40" height="40" as="geometry"/>
                </mxCell>
                <mxCell id="td4NYP-ENdZDlqvNvc2s-51" value="elem&lt;br&gt;1" style="rounded=0;whiteSpace=wrap;html=1;fillColor=#d5e8d4;strokeColor=#82b366;strokeWidth=2;fontSize=16;" parent="td4NYP-ENdZDlqvNvc2s-197" vertex="1">
                    <mxGeometry x="760" y="280" width="40" height="40" as="geometry"/>
                </mxCell>
                <mxCell id="td4NYP-ENdZDlqvNvc2s-52" value="elem&lt;br&gt;2" style="rounded=0;whiteSpace=wrap;html=1;fillColor=#d5e8d4;strokeColor=#82b366;strokeWidth=2;fontSize=16;" parent="td4NYP-ENdZDlqvNvc2s-197" vertex="1">
                    <mxGeometry x="800" y="280" width="40" height="40" as="geometry"/>
                </mxCell>
                <mxCell id="td4NYP-ENdZDlqvNvc2s-53" value="k 0" style="rounded=0;whiteSpace=wrap;html=1;fillColor=#fff2cc;strokeColor=#d6b656;strokeWidth=2;fontSize=16;horizontal=0;" parent="td4NYP-ENdZDlqvNvc2s-197" vertex="1">
                    <mxGeometry x="720" y="330" width="20" height="70" as="geometry"/>
                </mxCell>
                <mxCell id="td4NYP-ENdZDlqvNvc2s-54" value="elem&lt;br&gt;3" style="rounded=0;whiteSpace=wrap;html=1;fillColor=#d5e8d4;strokeColor=#82b366;strokeWidth=2;fontSize=16;" parent="td4NYP-ENdZDlqvNvc2s-197" vertex="1">
                    <mxGeometry x="840" y="280" width="40" height="40" as="geometry"/>
                </mxCell>
                <mxCell id="td4NYP-ENdZDlqvNvc2s-55" value="v 0" style="rounded=0;whiteSpace=wrap;html=1;fillColor=#f8cecc;strokeColor=#b85450;strokeWidth=2;fontSize=16;horizontal=0;" parent="td4NYP-ENdZDlqvNvc2s-197" vertex="1">
                    <mxGeometry x="740" y="330" width="20" height="70" as="geometry"/>
                </mxCell>
                <mxCell id="td4NYP-ENdZDlqvNvc2s-56" value="k 1" style="rounded=0;whiteSpace=wrap;html=1;fillColor=#fff2cc;strokeColor=#d6b656;strokeWidth=2;fontSize=16;horizontal=0;" parent="td4NYP-ENdZDlqvNvc2s-197" vertex="1">
                    <mxGeometry x="760" y="330" width="20" height="70" as="geometry"/>
                </mxCell>
                <mxCell id="td4NYP-ENdZDlqvNvc2s-57" value="v 1" style="rounded=0;whiteSpace=wrap;html=1;fillColor=#f8cecc;strokeColor=#b85450;strokeWidth=2;fontSize=16;horizontal=0;" parent="td4NYP-ENdZDlqvNvc2s-197" vertex="1">
                    <mxGeometry x="780" y="330" width="20" height="70" as="geometry"/>
                </mxCell>
                <mxCell id="td4NYP-ENdZDlqvNvc2s-58" value="k 2" style="rounded=0;whiteSpace=wrap;html=1;fillColor=#fff2cc;strokeColor=#d6b656;strokeWidth=2;fontSize=16;horizontal=0;" parent="td4NYP-ENdZDlqvNvc2s-197" vertex="1">
                    <mxGeometry x="800" y="330" width="20" height="70" as="geometry"/>
                </mxCell>
                <mxCell id="td4NYP-ENdZDlqvNvc2s-59" value="v 2" style="rounded=0;whiteSpace=wrap;html=1;fillColor=#f8cecc;strokeColor=#b85450;strokeWidth=2;fontSize=16;horizontal=0;" parent="td4NYP-ENdZDlqvNvc2s-197" vertex="1">
                    <mxGeometry x="820" y="330" width="20" height="70" as="geometry"/>
                </mxCell>
                <mxCell id="td4NYP-ENdZDlqvNvc2s-60" value="k 3" style="rounded=0;whiteSpace=wrap;html=1;fillColor=#fff2cc;strokeColor=#d6b656;strokeWidth=2;fontSize=16;horizontal=0;" parent="td4NYP-ENdZDlqvNvc2s-197" vertex="1">
                    <mxGeometry x="840" y="330" width="20" height="70" as="geometry"/>
                </mxCell>
                <mxCell id="td4NYP-ENdZDlqvNvc2s-61" value="v 3" style="rounded=0;whiteSpace=wrap;html=1;fillColor=#f8cecc;strokeColor=#b85450;strokeWidth=2;fontSize=16;horizontal=0;" parent="td4NYP-ENdZDlqvNvc2s-197" vertex="1">
                    <mxGeometry x="860" y="330" width="20" height="70" as="geometry"/>
                </mxCell>
                <mxCell id="td4NYP-ENdZDlqvNvc2s-62" style="edgeStyle=orthogonalEdgeStyle;curved=1;rounded=0;orthogonalLoop=1;jettySize=auto;html=1;exitX=0.5;exitY=1;exitDx=0;exitDy=0;entryX=0.5;entryY=0;entryDx=0;entryDy=0;" parent="td4NYP-ENdZDlqvNvc2s-197" source="td4NYP-ENdZDlqvNvc2s-15" target="td4NYP-ENdZDlqvNvc2s-23" edge="1">
                    <mxGeometry relative="1" as="geometry"/>
                </mxCell>
                <mxCell id="td4NYP-ENdZDlqvNvc2s-63" style="edgeStyle=orthogonalEdgeStyle;curved=1;rounded=0;orthogonalLoop=1;jettySize=auto;html=1;exitX=0.5;exitY=1;exitDx=0;exitDy=0;entryX=0.5;entryY=0;entryDx=0;entryDy=0;" parent="td4NYP-ENdZDlqvNvc2s-197" source="td4NYP-ENdZDlqvNvc2s-16" target="td4NYP-ENdZDlqvNvc2s-36" edge="1">
                    <mxGeometry relative="1" as="geometry"/>
                </mxCell>
                <mxCell id="td4NYP-ENdZDlqvNvc2s-64" style="edgeStyle=orthogonalEdgeStyle;curved=1;rounded=0;orthogonalLoop=1;jettySize=auto;html=1;exitX=0.5;exitY=1;exitDx=0;exitDy=0;" parent="td4NYP-ENdZDlqvNvc2s-197" source="td4NYP-ENdZDlqvNvc2s-18" target="td4NYP-ENdZDlqvNvc2s-49" edge="1">
                    <mxGeometry relative="1" as="geometry"/>
                </mxCell>
                <mxCell id="td4NYP-ENdZDlqvNvc2s-198" value="" style="group" parent="g8rNYsrk2wVaHTUvxYKV-1" vertex="1" connectable="0">
                    <mxGeometry x="600" width="880" height="400" as="geometry"/>
                </mxCell>
                <mxCell id="td4NYP-ENdZDlqvNvc2s-199" value="page l0" style="rounded=0;whiteSpace=wrap;html=1;fillColor=#dae8fc;strokeColor=#6c8ebf;strokeWidth=2;fontSize=16;" parent="td4NYP-ENdZDlqvNvc2s-198" vertex="1">
                    <mxGeometry y="240" width="160" height="40" as="geometry"/>
                </mxCell>
                <mxCell id="td4NYP-ENdZDlqvNvc2s-200" value="elem&lt;br&gt;0" style="rounded=0;whiteSpace=wrap;html=1;fillColor=#d5e8d4;strokeColor=#82b366;strokeWidth=2;fontSize=16;" parent="td4NYP-ENdZDlqvNvc2s-198" vertex="1">
                    <mxGeometry y="280" width="40" height="40" as="geometry"/>
                </mxCell>
                <mxCell id="td4NYP-ENdZDlqvNvc2s-201" value="elem&lt;br&gt;1" style="rounded=0;whiteSpace=wrap;html=1;fillColor=#d5e8d4;strokeColor=#82b366;strokeWidth=2;fontSize=16;" parent="td4NYP-ENdZDlqvNvc2s-198" vertex="1">
                    <mxGeometry x="40" y="280" width="40" height="40" as="geometry"/>
                </mxCell>
                <mxCell id="td4NYP-ENdZDlqvNvc2s-202" value="elem&lt;br&gt;2" style="rounded=0;whiteSpace=wrap;html=1;fillColor=#d5e8d4;strokeColor=#82b366;strokeWidth=2;fontSize=16;" parent="td4NYP-ENdZDlqvNvc2s-198" vertex="1">
                    <mxGeometry x="80" y="280" width="40" height="40" as="geometry"/>
                </mxCell>
                <mxCell id="td4NYP-ENdZDlqvNvc2s-203" value="k 0" style="rounded=0;whiteSpace=wrap;html=1;fillColor=#fff2cc;strokeColor=#d6b656;strokeWidth=2;fontSize=16;horizontal=0;" parent="td4NYP-ENdZDlqvNvc2s-198" vertex="1">
                    <mxGeometry y="330" width="20" height="70" as="geometry"/>
                </mxCell>
                <mxCell id="td4NYP-ENdZDlqvNvc2s-204" value="elem&lt;br&gt;3" style="rounded=0;whiteSpace=wrap;html=1;fillColor=#d5e8d4;strokeColor=#82b366;strokeWidth=2;fontSize=16;" parent="td4NYP-ENdZDlqvNvc2s-198" vertex="1">
                    <mxGeometry x="120" y="280" width="40" height="40" as="geometry"/>
                </mxCell>
                <mxCell id="td4NYP-ENdZDlqvNvc2s-205" value="v 0" style="rounded=0;whiteSpace=wrap;html=1;fillColor=#f8cecc;strokeColor=#b85450;strokeWidth=2;fontSize=16;horizontal=0;" parent="td4NYP-ENdZDlqvNvc2s-198" vertex="1">
                    <mxGeometry x="20" y="330" width="20" height="70" as="geometry"/>
                </mxCell>
                <mxCell id="td4NYP-ENdZDlqvNvc2s-206" value="k 1" style="rounded=0;whiteSpace=wrap;html=1;fillColor=#fff2cc;strokeColor=#d6b656;strokeWidth=2;fontSize=16;horizontal=0;" parent="td4NYP-ENdZDlqvNvc2s-198" vertex="1">
                    <mxGeometry x="40" y="330" width="20" height="70" as="geometry"/>
                </mxCell>
                <mxCell id="td4NYP-ENdZDlqvNvc2s-207" value="v 1" style="rounded=0;whiteSpace=wrap;html=1;fillColor=#f8cecc;strokeColor=#b85450;strokeWidth=2;fontSize=16;horizontal=0;" parent="td4NYP-ENdZDlqvNvc2s-198" vertex="1">
                    <mxGeometry x="60" y="330" width="20" height="70" as="geometry"/>
                </mxCell>
                <mxCell id="td4NYP-ENdZDlqvNvc2s-208" value="k 2" style="rounded=0;whiteSpace=wrap;html=1;fillColor=#fff2cc;strokeColor=#d6b656;strokeWidth=2;fontSize=16;horizontal=0;" parent="td4NYP-ENdZDlqvNvc2s-198" vertex="1">
                    <mxGeometry x="80" y="330" width="20" height="70" as="geometry"/>
                </mxCell>
                <mxCell id="td4NYP-ENdZDlqvNvc2s-209" value="v 2" style="rounded=0;whiteSpace=wrap;html=1;fillColor=#f8cecc;strokeColor=#b85450;strokeWidth=2;fontSize=16;horizontal=0;" parent="td4NYP-ENdZDlqvNvc2s-198" vertex="1">
                    <mxGeometry x="100" y="330" width="20" height="70" as="geometry"/>
                </mxCell>
                <mxCell id="td4NYP-ENdZDlqvNvc2s-210" value="k 3" style="rounded=0;whiteSpace=wrap;html=1;fillColor=#fff2cc;strokeColor=#d6b656;strokeWidth=2;fontSize=16;horizontal=0;" parent="td4NYP-ENdZDlqvNvc2s-198" vertex="1">
                    <mxGeometry x="120" y="330" width="20" height="70" as="geometry"/>
                </mxCell>
                <mxCell id="td4NYP-ENdZDlqvNvc2s-211" value="v 3" style="rounded=0;whiteSpace=wrap;html=1;fillColor=#f8cecc;strokeColor=#b85450;strokeWidth=2;fontSize=16;horizontal=0;" parent="td4NYP-ENdZDlqvNvc2s-198" vertex="1">
                    <mxGeometry x="140" y="330" width="20" height="70" as="geometry"/>
                </mxCell>
                <mxCell id="td4NYP-ENdZDlqvNvc2s-212" value="page r0" style="rounded=0;whiteSpace=wrap;html=1;fillColor=#dae8fc;strokeColor=#6c8ebf;strokeWidth=2;fontSize=16;" parent="td4NYP-ENdZDlqvNvc2s-198" vertex="1">
                    <mxGeometry x="360" width="160" height="40" as="geometry"/>
                </mxCell>
                <mxCell id="td4NYP-ENdZDlqvNvc2s-213" value="elem&lt;br&gt;0" style="rounded=0;whiteSpace=wrap;html=1;fillColor=#d5e8d4;strokeColor=#82b366;strokeWidth=2;fontSize=16;" parent="td4NYP-ENdZDlqvNvc2s-198" vertex="1">
                    <mxGeometry x="360" y="40" width="40" height="40" as="geometry"/>
                </mxCell>
                <mxCell id="td4NYP-ENdZDlqvNvc2s-214" value="elem&lt;br&gt;1" style="rounded=0;whiteSpace=wrap;html=1;fillColor=#d5e8d4;strokeColor=#82b366;strokeWidth=2;fontSize=16;" parent="td4NYP-ENdZDlqvNvc2s-198" vertex="1">
                    <mxGeometry x="400" y="40" width="40" height="40" as="geometry"/>
                </mxCell>
                <mxCell id="td4NYP-ENdZDlqvNvc2s-215" value="elem&lt;br&gt;2" style="rounded=0;whiteSpace=wrap;html=1;fillColor=#d5e8d4;strokeColor=#82b366;strokeWidth=2;fontSize=16;" parent="td4NYP-ENdZDlqvNvc2s-198" vertex="1">
                    <mxGeometry x="440" y="40" width="40" height="40" as="geometry"/>
                </mxCell>
                <mxCell id="td4NYP-ENdZDlqvNvc2s-216" value="k 0" style="rounded=0;whiteSpace=wrap;html=1;fillColor=#fff2cc;strokeColor=#d6b656;strokeWidth=2;fontSize=16;horizontal=0;" parent="td4NYP-ENdZDlqvNvc2s-198" vertex="1">
                    <mxGeometry x="360" y="90" width="40" height="70" as="geometry"/>
                </mxCell>
                <mxCell id="td4NYP-ENdZDlqvNvc2s-217" value="elem&lt;br&gt;3" style="rounded=0;whiteSpace=wrap;html=1;fillColor=#d5e8d4;strokeColor=#82b366;strokeWidth=2;fontSize=16;" parent="td4NYP-ENdZDlqvNvc2s-198" vertex="1">
                    <mxGeometry x="480" y="40" width="40" height="40" as="geometry"/>
                </mxCell>
                <mxCell id="td4NYP-ENdZDlqvNvc2s-218" value="k 1" style="rounded=0;whiteSpace=wrap;html=1;fillColor=#fff2cc;strokeColor=#d6b656;strokeWidth=2;fontSize=16;horizontal=0;" parent="td4NYP-ENdZDlqvNvc2s-198" vertex="1">
                    <mxGeometry x="400" y="90" width="40" height="70" as="geometry"/>
                </mxCell>
                <mxCell id="td4NYP-ENdZDlqvNvc2s-219" value="k 2" style="rounded=0;whiteSpace=wrap;html=1;fillColor=#fff2cc;strokeColor=#d6b656;strokeWidth=2;fontSize=16;horizontal=0;" parent="td4NYP-ENdZDlqvNvc2s-198" vertex="1">
                    <mxGeometry x="440" y="90" width="40" height="70" as="geometry"/>
                </mxCell>
                <mxCell id="td4NYP-ENdZDlqvNvc2s-220" value="k 3" style="rounded=0;whiteSpace=wrap;html=1;fillColor=#fff2cc;strokeColor=#d6b656;strokeWidth=2;fontSize=16;horizontal=0;" parent="td4NYP-ENdZDlqvNvc2s-198" vertex="1">
                    <mxGeometry x="480" y="90" width="40" height="70" as="geometry"/>
                </mxCell>
                <mxCell id="td4NYP-ENdZDlqvNvc2s-221" style="edgeStyle=orthogonalEdgeStyle;rounded=0;orthogonalLoop=1;jettySize=auto;html=1;exitX=0.5;exitY=1;exitDx=0;exitDy=0;curved=1;" parent="td4NYP-ENdZDlqvNvc2s-198" source="td4NYP-ENdZDlqvNvc2s-213" target="td4NYP-ENdZDlqvNvc2s-199" edge="1">
                    <mxGeometry relative="1" as="geometry"/>
                </mxCell>
                <mxCell id="td4NYP-ENdZDlqvNvc2s-222" value="page l1" style="rounded=0;whiteSpace=wrap;html=1;fillColor=#dae8fc;strokeColor=#6c8ebf;strokeWidth=2;fontSize=16;" parent="td4NYP-ENdZDlqvNvc2s-198" vertex="1">
                    <mxGeometry x="240" y="240" width="160" height="40" as="geometry"/>
                </mxCell>
                <mxCell id="td4NYP-ENdZDlqvNvc2s-223" value="elem&lt;br&gt;0" style="rounded=0;whiteSpace=wrap;html=1;fillColor=#d5e8d4;strokeColor=#82b366;strokeWidth=2;fontSize=16;" parent="td4NYP-ENdZDlqvNvc2s-198" vertex="1">
                    <mxGeometry x="240" y="280" width="40" height="40" as="geometry"/>
                </mxCell>
                <mxCell id="td4NYP-ENdZDlqvNvc2s-224" value="elem&lt;br&gt;1" style="rounded=0;whiteSpace=wrap;html=1;fillColor=#d5e8d4;strokeColor=#82b366;strokeWidth=2;fontSize=16;" parent="td4NYP-ENdZDlqvNvc2s-198" vertex="1">
                    <mxGeometry x="280" y="280" width="40" height="40" as="geometry"/>
                </mxCell>
                <mxCell id="td4NYP-ENdZDlqvNvc2s-225" value="elem&lt;br&gt;2" style="rounded=0;whiteSpace=wrap;html=1;fillColor=#d5e8d4;strokeColor=#82b366;strokeWidth=2;fontSize=16;" parent="td4NYP-ENdZDlqvNvc2s-198" vertex="1">
                    <mxGeometry x="320" y="280" width="40" height="40" as="geometry"/>
                </mxCell>
                <mxCell id="td4NYP-ENdZDlqvNvc2s-226" value="k 0" style="rounded=0;whiteSpace=wrap;html=1;fillColor=#fff2cc;strokeColor=#d6b656;strokeWidth=2;fontSize=16;horizontal=0;" parent="td4NYP-ENdZDlqvNvc2s-198" vertex="1">
                    <mxGeometry x="240" y="330" width="20" height="70" as="geometry"/>
                </mxCell>
                <mxCell id="td4NYP-ENdZDlqvNvc2s-227" value="elem&lt;br&gt;3" style="rounded=0;whiteSpace=wrap;html=1;fillColor=#d5e8d4;strokeColor=#82b366;strokeWidth=2;fontSize=16;" parent="td4NYP-ENdZDlqvNvc2s-198" vertex="1">
                    <mxGeometry x="360" y="280" width="40" height="40" as="geometry"/>
                </mxCell>
                <mxCell id="td4NYP-ENdZDlqvNvc2s-228" value="v 0" style="rounded=0;whiteSpace=wrap;html=1;fillColor=#f8cecc;strokeColor=#b85450;strokeWidth=2;fontSize=16;horizontal=0;" parent="td4NYP-ENdZDlqvNvc2s-198" vertex="1">
                    <mxGeometry x="260" y="330" width="20" height="70" as="geometry"/>
                </mxCell>
                <mxCell id="td4NYP-ENdZDlqvNvc2s-229" value="k 1" style="rounded=0;whiteSpace=wrap;html=1;fillColor=#fff2cc;strokeColor=#d6b656;strokeWidth=2;fontSize=16;horizontal=0;" parent="td4NYP-ENdZDlqvNvc2s-198" vertex="1">
                    <mxGeometry x="280" y="330" width="20" height="70" as="geometry"/>
                </mxCell>
                <mxCell id="td4NYP-ENdZDlqvNvc2s-230" value="v 1" style="rounded=0;whiteSpace=wrap;html=1;fillColor=#f8cecc;strokeColor=#b85450;strokeWidth=2;fontSize=16;horizontal=0;" parent="td4NYP-ENdZDlqvNvc2s-198" vertex="1">
                    <mxGeometry x="300" y="330" width="20" height="70" as="geometry"/>
                </mxCell>
                <mxCell id="td4NYP-ENdZDlqvNvc2s-231" value="k 2" style="rounded=0;whiteSpace=wrap;html=1;fillColor=#fff2cc;strokeColor=#d6b656;strokeWidth=2;fontSize=16;horizontal=0;" parent="td4NYP-ENdZDlqvNvc2s-198" vertex="1">
                    <mxGeometry x="320" y="330" width="20" height="70" as="geometry"/>
                </mxCell>
                <mxCell id="td4NYP-ENdZDlqvNvc2s-232" value="v 2" style="rounded=0;whiteSpace=wrap;html=1;fillColor=#f8cecc;strokeColor=#b85450;strokeWidth=2;fontSize=16;horizontal=0;" parent="td4NYP-ENdZDlqvNvc2s-198" vertex="1">
                    <mxGeometry x="340" y="330" width="20" height="70" as="geometry"/>
                </mxCell>
                <mxCell id="td4NYP-ENdZDlqvNvc2s-233" value="k 3" style="rounded=0;whiteSpace=wrap;html=1;fillColor=#fff2cc;strokeColor=#d6b656;strokeWidth=2;fontSize=16;horizontal=0;" parent="td4NYP-ENdZDlqvNvc2s-198" vertex="1">
                    <mxGeometry x="360" y="330" width="20" height="70" as="geometry"/>
                </mxCell>
                <mxCell id="td4NYP-ENdZDlqvNvc2s-234" value="v 3" style="rounded=0;whiteSpace=wrap;html=1;fillColor=#f8cecc;strokeColor=#b85450;strokeWidth=2;fontSize=16;horizontal=0;" parent="td4NYP-ENdZDlqvNvc2s-198" vertex="1">
                    <mxGeometry x="380" y="330" width="20" height="70" as="geometry"/>
                </mxCell>
                <mxCell id="td4NYP-ENdZDlqvNvc2s-235" value="page l2" style="rounded=0;whiteSpace=wrap;html=1;fillColor=#dae8fc;strokeColor=#6c8ebf;strokeWidth=2;fontSize=16;" parent="td4NYP-ENdZDlqvNvc2s-198" vertex="1">
                    <mxGeometry x="480" y="240" width="160" height="40" as="geometry"/>
                </mxCell>
                <mxCell id="td4NYP-ENdZDlqvNvc2s-236" value="elem&lt;br&gt;0" style="rounded=0;whiteSpace=wrap;html=1;fillColor=#d5e8d4;strokeColor=#82b366;strokeWidth=2;fontSize=16;" parent="td4NYP-ENdZDlqvNvc2s-198" vertex="1">
                    <mxGeometry x="480" y="280" width="40" height="40" as="geometry"/>
                </mxCell>
                <mxCell id="td4NYP-ENdZDlqvNvc2s-237" value="elem&lt;br&gt;1" style="rounded=0;whiteSpace=wrap;html=1;fillColor=#d5e8d4;strokeColor=#82b366;strokeWidth=2;fontSize=16;" parent="td4NYP-ENdZDlqvNvc2s-198" vertex="1">
                    <mxGeometry x="520" y="280" width="40" height="40" as="geometry"/>
                </mxCell>
                <mxCell id="td4NYP-ENdZDlqvNvc2s-238" value="elem&lt;br&gt;2" style="rounded=0;whiteSpace=wrap;html=1;fillColor=#d5e8d4;strokeColor=#82b366;strokeWidth=2;fontSize=16;" parent="td4NYP-ENdZDlqvNvc2s-198" vertex="1">
                    <mxGeometry x="560" y="280" width="40" height="40" as="geometry"/>
                </mxCell>
                <mxCell id="td4NYP-ENdZDlqvNvc2s-239" value="k 0" style="rounded=0;whiteSpace=wrap;html=1;fillColor=#fff2cc;strokeColor=#d6b656;strokeWidth=2;fontSize=16;horizontal=0;" parent="td4NYP-ENdZDlqvNvc2s-198" vertex="1">
                    <mxGeometry x="480" y="330" width="20" height="70" as="geometry"/>
                </mxCell>
                <mxCell id="td4NYP-ENdZDlqvNvc2s-240" value="elem&lt;br&gt;3" style="rounded=0;whiteSpace=wrap;html=1;fillColor=#d5e8d4;strokeColor=#82b366;strokeWidth=2;fontSize=16;" parent="td4NYP-ENdZDlqvNvc2s-198" vertex="1">
                    <mxGeometry x="600" y="280" width="40" height="40" as="geometry"/>
                </mxCell>
                <mxCell id="td4NYP-ENdZDlqvNvc2s-241" value="v 0" style="rounded=0;whiteSpace=wrap;html=1;fillColor=#f8cecc;strokeColor=#b85450;strokeWidth=2;fontSize=16;horizontal=0;" parent="td4NYP-ENdZDlqvNvc2s-198" vertex="1">
                    <mxGeometry x="500" y="330" width="20" height="70" as="geometry"/>
                </mxCell>
                <mxCell id="td4NYP-ENdZDlqvNvc2s-242" value="k 1" style="rounded=0;whiteSpace=wrap;html=1;fillColor=#fff2cc;strokeColor=#d6b656;strokeWidth=2;fontSize=16;horizontal=0;" parent="td4NYP-ENdZDlqvNvc2s-198" vertex="1">
                    <mxGeometry x="520" y="330" width="20" height="70" as="geometry"/>
                </mxCell>
                <mxCell id="td4NYP-ENdZDlqvNvc2s-243" value="v 1" style="rounded=0;whiteSpace=wrap;html=1;fillColor=#f8cecc;strokeColor=#b85450;strokeWidth=2;fontSize=16;horizontal=0;" parent="td4NYP-ENdZDlqvNvc2s-198" vertex="1">
                    <mxGeometry x="540" y="330" width="20" height="70" as="geometry"/>
                </mxCell>
                <mxCell id="td4NYP-ENdZDlqvNvc2s-244" value="k 2" style="rounded=0;whiteSpace=wrap;html=1;fillColor=#fff2cc;strokeColor=#d6b656;strokeWidth=2;fontSize=16;horizontal=0;" parent="td4NYP-ENdZDlqvNvc2s-198" vertex="1">
                    <mxGeometry x="560" y="330" width="20" height="70" as="geometry"/>
                </mxCell>
                <mxCell id="td4NYP-ENdZDlqvNvc2s-245" value="v 2" style="rounded=0;whiteSpace=wrap;html=1;fillColor=#f8cecc;strokeColor=#b85450;strokeWidth=2;fontSize=16;horizontal=0;" parent="td4NYP-ENdZDlqvNvc2s-198" vertex="1">
                    <mxGeometry x="580" y="330" width="20" height="70" as="geometry"/>
                </mxCell>
                <mxCell id="td4NYP-ENdZDlqvNvc2s-246" value="k 3" style="rounded=0;whiteSpace=wrap;html=1;fillColor=#fff2cc;strokeColor=#d6b656;strokeWidth=2;fontSize=16;horizontal=0;" parent="td4NYP-ENdZDlqvNvc2s-198" vertex="1">
                    <mxGeometry x="600" y="330" width="20" height="70" as="geometry"/>
                </mxCell>
                <mxCell id="td4NYP-ENdZDlqvNvc2s-247" value="v 3" style="rounded=0;whiteSpace=wrap;html=1;fillColor=#f8cecc;strokeColor=#b85450;strokeWidth=2;fontSize=16;horizontal=0;" parent="td4NYP-ENdZDlqvNvc2s-198" vertex="1">
                    <mxGeometry x="620" y="330" width="20" height="70" as="geometry"/>
                </mxCell>
                <mxCell id="td4NYP-ENdZDlqvNvc2s-248" value="page l3" style="rounded=0;whiteSpace=wrap;html=1;fillColor=#dae8fc;strokeColor=#6c8ebf;strokeWidth=2;fontSize=16;" parent="td4NYP-ENdZDlqvNvc2s-198" vertex="1">
                    <mxGeometry x="720" y="240" width="160" height="40" as="geometry"/>
                </mxCell>
                <mxCell id="td4NYP-ENdZDlqvNvc2s-249" value="elem&lt;br&gt;0" style="rounded=0;whiteSpace=wrap;html=1;fillColor=#d5e8d4;strokeColor=#82b366;strokeWidth=2;fontSize=16;" parent="td4NYP-ENdZDlqvNvc2s-198" vertex="1">
                    <mxGeometry x="720" y="280" width="40" height="40" as="geometry"/>
                </mxCell>
                <mxCell id="td4NYP-ENdZDlqvNvc2s-250" value="elem&lt;br&gt;1" style="rounded=0;whiteSpace=wrap;html=1;fillColor=#d5e8d4;strokeColor=#82b366;strokeWidth=2;fontSize=16;" parent="td4NYP-ENdZDlqvNvc2s-198" vertex="1">
                    <mxGeometry x="760" y="280" width="40" height="40" as="geometry"/>
                </mxCell>
                <mxCell id="td4NYP-ENdZDlqvNvc2s-251" value="elem&lt;br&gt;2" style="rounded=0;whiteSpace=wrap;html=1;fillColor=#d5e8d4;strokeColor=#82b366;strokeWidth=2;fontSize=16;" parent="td4NYP-ENdZDlqvNvc2s-198" vertex="1">
                    <mxGeometry x="800" y="280" width="40" height="40" as="geometry"/>
                </mxCell>
                <mxCell id="td4NYP-ENdZDlqvNvc2s-252" value="k 0" style="rounded=0;whiteSpace=wrap;html=1;fillColor=#fff2cc;strokeColor=#d6b656;strokeWidth=2;fontSize=16;horizontal=0;" parent="td4NYP-ENdZDlqvNvc2s-198" vertex="1">
                    <mxGeometry x="720" y="330" width="20" height="70" as="geometry"/>
                </mxCell>
                <mxCell id="td4NYP-ENdZDlqvNvc2s-253" value="elem&lt;br&gt;3" style="rounded=0;whiteSpace=wrap;html=1;fillColor=#d5e8d4;strokeColor=#82b366;strokeWidth=2;fontSize=16;" parent="td4NYP-ENdZDlqvNvc2s-198" vertex="1">
                    <mxGeometry x="840" y="280" width="40" height="40" as="geometry"/>
                </mxCell>
                <mxCell id="td4NYP-ENdZDlqvNvc2s-254" value="v 0" style="rounded=0;whiteSpace=wrap;html=1;fillColor=#f8cecc;strokeColor=#b85450;strokeWidth=2;fontSize=16;horizontal=0;" parent="td4NYP-ENdZDlqvNvc2s-198" vertex="1">
                    <mxGeometry x="740" y="330" width="20" height="70" as="geometry"/>
                </mxCell>
                <mxCell id="td4NYP-ENdZDlqvNvc2s-255" value="k 1" style="rounded=0;whiteSpace=wrap;html=1;fillColor=#fff2cc;strokeColor=#d6b656;strokeWidth=2;fontSize=16;horizontal=0;" parent="td4NYP-ENdZDlqvNvc2s-198" vertex="1">
                    <mxGeometry x="760" y="330" width="20" height="70" as="geometry"/>
                </mxCell>
                <mxCell id="td4NYP-ENdZDlqvNvc2s-256" value="v 1" style="rounded=0;whiteSpace=wrap;html=1;fillColor=#f8cecc;strokeColor=#b85450;strokeWidth=2;fontSize=16;horizontal=0;" parent="td4NYP-ENdZDlqvNvc2s-198" vertex="1">
                    <mxGeometry x="780" y="330" width="20" height="70" as="geometry"/>
                </mxCell>
                <mxCell id="td4NYP-ENdZDlqvNvc2s-257" value="k 2" style="rounded=0;whiteSpace=wrap;html=1;fillColor=#fff2cc;strokeColor=#d6b656;strokeWidth=2;fontSize=16;horizontal=0;" parent="td4NYP-ENdZDlqvNvc2s-198" vertex="1">
                    <mxGeometry x="800" y="330" width="20" height="70" as="geometry"/>
                </mxCell>
                <mxCell id="td4NYP-ENdZDlqvNvc2s-258" value="v 2" style="rounded=0;whiteSpace=wrap;html=1;fillColor=#f8cecc;strokeColor=#b85450;strokeWidth=2;fontSize=16;horizontal=0;" parent="td4NYP-ENdZDlqvNvc2s-198" vertex="1">
                    <mxGeometry x="820" y="330" width="20" height="70" as="geometry"/>
                </mxCell>
                <mxCell id="td4NYP-ENdZDlqvNvc2s-259" value="k 3" style="rounded=0;whiteSpace=wrap;html=1;fillColor=#fff2cc;strokeColor=#d6b656;strokeWidth=2;fontSize=16;horizontal=0;" parent="td4NYP-ENdZDlqvNvc2s-198" vertex="1">
                    <mxGeometry x="840" y="330" width="20" height="70" as="geometry"/>
                </mxCell>
                <mxCell id="td4NYP-ENdZDlqvNvc2s-260" value="v 3" style="rounded=0;whiteSpace=wrap;html=1;fillColor=#f8cecc;strokeColor=#b85450;strokeWidth=2;fontSize=16;horizontal=0;" parent="td4NYP-ENdZDlqvNvc2s-198" vertex="1">
                    <mxGeometry x="860" y="330" width="20" height="70" as="geometry"/>
                </mxCell>
                <mxCell id="td4NYP-ENdZDlqvNvc2s-261" style="edgeStyle=orthogonalEdgeStyle;curved=1;rounded=0;orthogonalLoop=1;jettySize=auto;html=1;exitX=0.5;exitY=1;exitDx=0;exitDy=0;entryX=0.5;entryY=0;entryDx=0;entryDy=0;" parent="td4NYP-ENdZDlqvNvc2s-198" source="td4NYP-ENdZDlqvNvc2s-214" target="td4NYP-ENdZDlqvNvc2s-222" edge="1">
                    <mxGeometry relative="1" as="geometry"/>
                </mxCell>
                <mxCell id="td4NYP-ENdZDlqvNvc2s-262" style="edgeStyle=orthogonalEdgeStyle;curved=1;rounded=0;orthogonalLoop=1;jettySize=auto;html=1;exitX=0.5;exitY=1;exitDx=0;exitDy=0;entryX=0.5;entryY=0;entryDx=0;entryDy=0;" parent="td4NYP-ENdZDlqvNvc2s-198" source="td4NYP-ENdZDlqvNvc2s-215" target="td4NYP-ENdZDlqvNvc2s-235" edge="1">
                    <mxGeometry relative="1" as="geometry"/>
                </mxCell>
                <mxCell id="td4NYP-ENdZDlqvNvc2s-263" style="edgeStyle=orthogonalEdgeStyle;curved=1;rounded=0;orthogonalLoop=1;jettySize=auto;html=1;exitX=0.5;exitY=1;exitDx=0;exitDy=0;" parent="td4NYP-ENdZDlqvNvc2s-198" source="td4NYP-ENdZDlqvNvc2s-217" target="td4NYP-ENdZDlqvNvc2s-248" edge="1">
                    <mxGeometry relative="1" as="geometry"/>
                </mxCell>
                <mxCell id="td4NYP-ENdZDlqvNvc2s-264" style="edgeStyle=orthogonalEdgeStyle;curved=1;rounded=0;orthogonalLoop=1;jettySize=auto;html=1;exitX=0.5;exitY=1;exitDx=0;exitDy=0;entryX=0.5;entryY=0;entryDx=0;entryDy=0;dashed=1;" parent="g8rNYsrk2wVaHTUvxYKV-1" source="td4NYP-ENdZDlqvNvc2s-205" target="td4NYP-ENdZDlqvNvc2s-13" edge="1">
                    <mxGeometry relative="1" as="geometry"/>
                </mxCell>
                <mxCell id="td4NYP-ENdZDlqvNvc2s-265" value="" style="group" parent="g8rNYsrk2wVaHTUvxYKV-1" vertex="1" connectable="0">
                    <mxGeometry x="1160" y="520" width="880" height="400" as="geometry"/>
                </mxCell>
                <mxCell id="td4NYP-ENdZDlqvNvc2s-266" value="page l8" style="rounded=0;whiteSpace=wrap;html=1;fillColor=#dae8fc;strokeColor=#6c8ebf;strokeWidth=2;fontSize=16;" parent="td4NYP-ENdZDlqvNvc2s-265" vertex="1">
                    <mxGeometry y="240" width="160" height="40" as="geometry"/>
                </mxCell>
                <mxCell id="td4NYP-ENdZDlqvNvc2s-267" value="elem&lt;br&gt;0" style="rounded=0;whiteSpace=wrap;html=1;fillColor=#d5e8d4;strokeColor=#82b366;strokeWidth=2;fontSize=16;" parent="td4NYP-ENdZDlqvNvc2s-265" vertex="1">
                    <mxGeometry y="280" width="40" height="40" as="geometry"/>
                </mxCell>
                <mxCell id="td4NYP-ENdZDlqvNvc2s-268" value="elem&lt;br&gt;1" style="rounded=0;whiteSpace=wrap;html=1;fillColor=#d5e8d4;strokeColor=#82b366;strokeWidth=2;fontSize=16;" parent="td4NYP-ENdZDlqvNvc2s-265" vertex="1">
                    <mxGeometry x="40" y="280" width="40" height="40" as="geometry"/>
                </mxCell>
                <mxCell id="td4NYP-ENdZDlqvNvc2s-269" value="elem&lt;br&gt;2" style="rounded=0;whiteSpace=wrap;html=1;fillColor=#d5e8d4;strokeColor=#82b366;strokeWidth=2;fontSize=16;" parent="td4NYP-ENdZDlqvNvc2s-265" vertex="1">
                    <mxGeometry x="80" y="280" width="40" height="40" as="geometry"/>
                </mxCell>
                <mxCell id="td4NYP-ENdZDlqvNvc2s-270" value="k 0" style="rounded=0;whiteSpace=wrap;html=1;fillColor=#fff2cc;strokeColor=#d6b656;strokeWidth=2;fontSize=16;horizontal=0;" parent="td4NYP-ENdZDlqvNvc2s-265" vertex="1">
                    <mxGeometry y="330" width="20" height="70" as="geometry"/>
                </mxCell>
                <mxCell id="td4NYP-ENdZDlqvNvc2s-271" value="elem&lt;br&gt;3" style="rounded=0;whiteSpace=wrap;html=1;fillColor=#d5e8d4;strokeColor=#82b366;strokeWidth=2;fontSize=16;" parent="td4NYP-ENdZDlqvNvc2s-265" vertex="1">
                    <mxGeometry x="120" y="280" width="40" height="40" as="geometry"/>
                </mxCell>
                <mxCell id="td4NYP-ENdZDlqvNvc2s-272" value="v 0" style="rounded=0;whiteSpace=wrap;html=1;fillColor=#f8cecc;strokeColor=#b85450;strokeWidth=2;fontSize=16;horizontal=0;" parent="td4NYP-ENdZDlqvNvc2s-265" vertex="1">
                    <mxGeometry x="20" y="330" width="20" height="70" as="geometry"/>
                </mxCell>
                <mxCell id="td4NYP-ENdZDlqvNvc2s-273" value="k 1" style="rounded=0;whiteSpace=wrap;html=1;fillColor=#fff2cc;strokeColor=#d6b656;strokeWidth=2;fontSize=16;horizontal=0;" parent="td4NYP-ENdZDlqvNvc2s-265" vertex="1">
                    <mxGeometry x="40" y="330" width="20" height="70" as="geometry"/>
                </mxCell>
                <mxCell id="td4NYP-ENdZDlqvNvc2s-274" value="v 1" style="rounded=0;whiteSpace=wrap;html=1;fillColor=#f8cecc;strokeColor=#b85450;strokeWidth=2;fontSize=16;horizontal=0;" parent="td4NYP-ENdZDlqvNvc2s-265" vertex="1">
                    <mxGeometry x="60" y="330" width="20" height="70" as="geometry"/>
                </mxCell>
                <mxCell id="td4NYP-ENdZDlqvNvc2s-275" value="k 2" style="rounded=0;whiteSpace=wrap;html=1;fillColor=#fff2cc;strokeColor=#d6b656;strokeWidth=2;fontSize=16;horizontal=0;" parent="td4NYP-ENdZDlqvNvc2s-265" vertex="1">
                    <mxGeometry x="80" y="330" width="20" height="70" as="geometry"/>
                </mxCell>
                <mxCell id="td4NYP-ENdZDlqvNvc2s-276" value="v 2" style="rounded=0;whiteSpace=wrap;html=1;fillColor=#f8cecc;strokeColor=#b85450;strokeWidth=2;fontSize=16;horizontal=0;" parent="td4NYP-ENdZDlqvNvc2s-265" vertex="1">
                    <mxGeometry x="100" y="330" width="20" height="70" as="geometry"/>
                </mxCell>
                <mxCell id="td4NYP-ENdZDlqvNvc2s-277" value="k 3" style="rounded=0;whiteSpace=wrap;html=1;fillColor=#fff2cc;strokeColor=#d6b656;strokeWidth=2;fontSize=16;horizontal=0;" parent="td4NYP-ENdZDlqvNvc2s-265" vertex="1">
                    <mxGeometry x="120" y="330" width="20" height="70" as="geometry"/>
                </mxCell>
                <mxCell id="td4NYP-ENdZDlqvNvc2s-278" value="v 3" style="rounded=0;whiteSpace=wrap;html=1;fillColor=#f8cecc;strokeColor=#b85450;strokeWidth=2;fontSize=16;horizontal=0;" parent="td4NYP-ENdZDlqvNvc2s-265" vertex="1">
                    <mxGeometry x="140" y="330" width="20" height="70" as="geometry"/>
                </mxCell>
                <mxCell id="td4NYP-ENdZDlqvNvc2s-279" value="page r2" style="rounded=0;whiteSpace=wrap;html=1;fillColor=#dae8fc;strokeColor=#6c8ebf;strokeWidth=2;fontSize=16;" parent="td4NYP-ENdZDlqvNvc2s-265" vertex="1">
                    <mxGeometry x="360" width="160" height="40" as="geometry"/>
                </mxCell>
                <mxCell id="td4NYP-ENdZDlqvNvc2s-280" value="elem&lt;br&gt;0" style="rounded=0;whiteSpace=wrap;html=1;fillColor=#d5e8d4;strokeColor=#82b366;strokeWidth=2;fontSize=16;" parent="td4NYP-ENdZDlqvNvc2s-265" vertex="1">
                    <mxGeometry x="360" y="40" width="40" height="40" as="geometry"/>
                </mxCell>
                <mxCell id="td4NYP-ENdZDlqvNvc2s-281" value="elem&lt;br&gt;1" style="rounded=0;whiteSpace=wrap;html=1;fillColor=#d5e8d4;strokeColor=#82b366;strokeWidth=2;fontSize=16;" parent="td4NYP-ENdZDlqvNvc2s-265" vertex="1">
                    <mxGeometry x="400" y="40" width="40" height="40" as="geometry"/>
                </mxCell>
                <mxCell id="td4NYP-ENdZDlqvNvc2s-282" value="elem&lt;br&gt;2" style="rounded=0;whiteSpace=wrap;html=1;fillColor=#d5e8d4;strokeColor=#82b366;strokeWidth=2;fontSize=16;" parent="td4NYP-ENdZDlqvNvc2s-265" vertex="1">
                    <mxGeometry x="440" y="40" width="40" height="40" as="geometry"/>
                </mxCell>
                <mxCell id="td4NYP-ENdZDlqvNvc2s-283" value="k 0" style="rounded=0;whiteSpace=wrap;html=1;fillColor=#fff2cc;strokeColor=#d6b656;strokeWidth=2;fontSize=16;horizontal=0;" parent="td4NYP-ENdZDlqvNvc2s-265" vertex="1">
                    <mxGeometry x="360" y="90" width="40" height="70" as="geometry"/>
                </mxCell>
                <mxCell id="td4NYP-ENdZDlqvNvc2s-284" value="elem&lt;br&gt;3" style="rounded=0;whiteSpace=wrap;html=1;fillColor=#d5e8d4;strokeColor=#82b366;strokeWidth=2;fontSize=16;" parent="td4NYP-ENdZDlqvNvc2s-265" vertex="1">
                    <mxGeometry x="480" y="40" width="40" height="40" as="geometry"/>
                </mxCell>
                <mxCell id="td4NYP-ENdZDlqvNvc2s-285" value="k 1" style="rounded=0;whiteSpace=wrap;html=1;fillColor=#fff2cc;strokeColor=#d6b656;strokeWidth=2;fontSize=16;horizontal=0;" parent="td4NYP-ENdZDlqvNvc2s-265" vertex="1">
                    <mxGeometry x="400" y="90" width="40" height="70" as="geometry"/>
                </mxCell>
                <mxCell id="td4NYP-ENdZDlqvNvc2s-286" value="k 2" style="rounded=0;whiteSpace=wrap;html=1;fillColor=#fff2cc;strokeColor=#d6b656;strokeWidth=2;fontSize=16;horizontal=0;" parent="td4NYP-ENdZDlqvNvc2s-265" vertex="1">
                    <mxGeometry x="440" y="90" width="40" height="70" as="geometry"/>
                </mxCell>
                <mxCell id="td4NYP-ENdZDlqvNvc2s-287" value="k 3" style="rounded=0;whiteSpace=wrap;html=1;fillColor=#fff2cc;strokeColor=#d6b656;strokeWidth=2;fontSize=16;horizontal=0;" parent="td4NYP-ENdZDlqvNvc2s-265" vertex="1">
                    <mxGeometry x="480" y="90" width="40" height="70" as="geometry"/>
                </mxCell>
                <mxCell id="td4NYP-ENdZDlqvNvc2s-288" style="edgeStyle=orthogonalEdgeStyle;rounded=0;orthogonalLoop=1;jettySize=auto;html=1;exitX=0.5;exitY=1;exitDx=0;exitDy=0;curved=1;" parent="td4NYP-ENdZDlqvNvc2s-265" source="td4NYP-ENdZDlqvNvc2s-280" target="td4NYP-ENdZDlqvNvc2s-266" edge="1">
                    <mxGeometry relative="1" as="geometry"/>
                </mxCell>
                <mxCell id="td4NYP-ENdZDlqvNvc2s-289" value="page l9" style="rounded=0;whiteSpace=wrap;html=1;fillColor=#dae8fc;strokeColor=#6c8ebf;strokeWidth=2;fontSize=16;" parent="td4NYP-ENdZDlqvNvc2s-265" vertex="1">
                    <mxGeometry x="240" y="240" width="160" height="40" as="geometry"/>
                </mxCell>
                <mxCell id="td4NYP-ENdZDlqvNvc2s-290" value="elem&lt;br&gt;0" style="rounded=0;whiteSpace=wrap;html=1;fillColor=#d5e8d4;strokeColor=#82b366;strokeWidth=2;fontSize=16;" parent="td4NYP-ENdZDlqvNvc2s-265" vertex="1">
                    <mxGeometry x="240" y="280" width="40" height="40" as="geometry"/>
                </mxCell>
                <mxCell id="td4NYP-ENdZDlqvNvc2s-291" value="elem&lt;br&gt;1" style="rounded=0;whiteSpace=wrap;html=1;fillColor=#d5e8d4;strokeColor=#82b366;strokeWidth=2;fontSize=16;" parent="td4NYP-ENdZDlqvNvc2s-265" vertex="1">
                    <mxGeometry x="280" y="280" width="40" height="40" as="geometry"/>
                </mxCell>
                <mxCell id="td4NYP-ENdZDlqvNvc2s-292" value="elem&lt;br&gt;2" style="rounded=0;whiteSpace=wrap;html=1;fillColor=#d5e8d4;strokeColor=#82b366;strokeWidth=2;fontSize=16;" parent="td4NYP-ENdZDlqvNvc2s-265" vertex="1">
                    <mxGeometry x="320" y="280" width="40" height="40" as="geometry"/>
                </mxCell>
                <mxCell id="td4NYP-ENdZDlqvNvc2s-293" value="k 0" style="rounded=0;whiteSpace=wrap;html=1;fillColor=#fff2cc;strokeColor=#d6b656;strokeWidth=2;fontSize=16;horizontal=0;" parent="td4NYP-ENdZDlqvNvc2s-265" vertex="1">
                    <mxGeometry x="240" y="330" width="20" height="70" as="geometry"/>
                </mxCell>
                <mxCell id="td4NYP-ENdZDlqvNvc2s-294" value="elem&lt;br&gt;3" style="rounded=0;whiteSpace=wrap;html=1;fillColor=#d5e8d4;strokeColor=#82b366;strokeWidth=2;fontSize=16;" parent="td4NYP-ENdZDlqvNvc2s-265" vertex="1">
                    <mxGeometry x="360" y="280" width="40" height="40" as="geometry"/>
                </mxCell>
                <mxCell id="td4NYP-ENdZDlqvNvc2s-295" value="v 0" style="rounded=0;whiteSpace=wrap;html=1;fillColor=#f8cecc;strokeColor=#b85450;strokeWidth=2;fontSize=16;horizontal=0;" parent="td4NYP-ENdZDlqvNvc2s-265" vertex="1">
                    <mxGeometry x="260" y="330" width="20" height="70" as="geometry"/>
                </mxCell>
                <mxCell id="td4NYP-ENdZDlqvNvc2s-296" value="k 1" style="rounded=0;whiteSpace=wrap;html=1;fillColor=#fff2cc;strokeColor=#d6b656;strokeWidth=2;fontSize=16;horizontal=0;" parent="td4NYP-ENdZDlqvNvc2s-265" vertex="1">
                    <mxGeometry x="280" y="330" width="20" height="70" as="geometry"/>
                </mxCell>
                <mxCell id="td4NYP-ENdZDlqvNvc2s-297" value="v 1" style="rounded=0;whiteSpace=wrap;html=1;fillColor=#f8cecc;strokeColor=#b85450;strokeWidth=2;fontSize=16;horizontal=0;" parent="td4NYP-ENdZDlqvNvc2s-265" vertex="1">
                    <mxGeometry x="300" y="330" width="20" height="70" as="geometry"/>
                </mxCell>
                <mxCell id="td4NYP-ENdZDlqvNvc2s-298" value="k 2" style="rounded=0;whiteSpace=wrap;html=1;fillColor=#fff2cc;strokeColor=#d6b656;strokeWidth=2;fontSize=16;horizontal=0;" parent="td4NYP-ENdZDlqvNvc2s-265" vertex="1">
                    <mxGeometry x="320" y="330" width="20" height="70" as="geometry"/>
                </mxCell>
                <mxCell id="td4NYP-ENdZDlqvNvc2s-299" value="v 2" style="rounded=0;whiteSpace=wrap;html=1;fillColor=#f8cecc;strokeColor=#b85450;strokeWidth=2;fontSize=16;horizontal=0;" parent="td4NYP-ENdZDlqvNvc2s-265" vertex="1">
                    <mxGeometry x="340" y="330" width="20" height="70" as="geometry"/>
                </mxCell>
                <mxCell id="td4NYP-ENdZDlqvNvc2s-300" value="k 3" style="rounded=0;whiteSpace=wrap;html=1;fillColor=#fff2cc;strokeColor=#d6b656;strokeWidth=2;fontSize=16;horizontal=0;" parent="td4NYP-ENdZDlqvNvc2s-265" vertex="1">
                    <mxGeometry x="360" y="330" width="20" height="70" as="geometry"/>
                </mxCell>
                <mxCell id="td4NYP-ENdZDlqvNvc2s-301" value="v 3" style="rounded=0;whiteSpace=wrap;html=1;fillColor=#f8cecc;strokeColor=#b85450;strokeWidth=2;fontSize=16;horizontal=0;" parent="td4NYP-ENdZDlqvNvc2s-265" vertex="1">
                    <mxGeometry x="380" y="330" width="20" height="70" as="geometry"/>
                </mxCell>
                <mxCell id="td4NYP-ENdZDlqvNvc2s-302" value="page l10" style="rounded=0;whiteSpace=wrap;html=1;fillColor=#dae8fc;strokeColor=#6c8ebf;strokeWidth=2;fontSize=16;" parent="td4NYP-ENdZDlqvNvc2s-265" vertex="1">
                    <mxGeometry x="480" y="240" width="160" height="40" as="geometry"/>
                </mxCell>
                <mxCell id="td4NYP-ENdZDlqvNvc2s-303" value="elem&lt;br&gt;0" style="rounded=0;whiteSpace=wrap;html=1;fillColor=#d5e8d4;strokeColor=#82b366;strokeWidth=2;fontSize=16;" parent="td4NYP-ENdZDlqvNvc2s-265" vertex="1">
                    <mxGeometry x="480" y="280" width="40" height="40" as="geometry"/>
                </mxCell>
                <mxCell id="td4NYP-ENdZDlqvNvc2s-304" value="elem&lt;br&gt;1" style="rounded=0;whiteSpace=wrap;html=1;fillColor=#d5e8d4;strokeColor=#82b366;strokeWidth=2;fontSize=16;" parent="td4NYP-ENdZDlqvNvc2s-265" vertex="1">
                    <mxGeometry x="520" y="280" width="40" height="40" as="geometry"/>
                </mxCell>
                <mxCell id="td4NYP-ENdZDlqvNvc2s-305" value="elem&lt;br&gt;2" style="rounded=0;whiteSpace=wrap;html=1;fillColor=#d5e8d4;strokeColor=#82b366;strokeWidth=2;fontSize=16;" parent="td4NYP-ENdZDlqvNvc2s-265" vertex="1">
                    <mxGeometry x="560" y="280" width="40" height="40" as="geometry"/>
                </mxCell>
                <mxCell id="td4NYP-ENdZDlqvNvc2s-306" value="k 0" style="rounded=0;whiteSpace=wrap;html=1;fillColor=#fff2cc;strokeColor=#d6b656;strokeWidth=2;fontSize=16;horizontal=0;" parent="td4NYP-ENdZDlqvNvc2s-265" vertex="1">
                    <mxGeometry x="480" y="330" width="20" height="70" as="geometry"/>
                </mxCell>
                <mxCell id="td4NYP-ENdZDlqvNvc2s-307" value="elem&lt;br&gt;3" style="rounded=0;whiteSpace=wrap;html=1;fillColor=#d5e8d4;strokeColor=#82b366;strokeWidth=2;fontSize=16;" parent="td4NYP-ENdZDlqvNvc2s-265" vertex="1">
                    <mxGeometry x="600" y="280" width="40" height="40" as="geometry"/>
                </mxCell>
                <mxCell id="td4NYP-ENdZDlqvNvc2s-308" value="v 0" style="rounded=0;whiteSpace=wrap;html=1;fillColor=#f8cecc;strokeColor=#b85450;strokeWidth=2;fontSize=16;horizontal=0;" parent="td4NYP-ENdZDlqvNvc2s-265" vertex="1">
                    <mxGeometry x="500" y="330" width="20" height="70" as="geometry"/>
                </mxCell>
                <mxCell id="td4NYP-ENdZDlqvNvc2s-309" value="k 1" style="rounded=0;whiteSpace=wrap;html=1;fillColor=#fff2cc;strokeColor=#d6b656;strokeWidth=2;fontSize=16;horizontal=0;" parent="td4NYP-ENdZDlqvNvc2s-265" vertex="1">
                    <mxGeometry x="520" y="330" width="20" height="70" as="geometry"/>
                </mxCell>
                <mxCell id="td4NYP-ENdZDlqvNvc2s-310" value="v 1" style="rounded=0;whiteSpace=wrap;html=1;fillColor=#f8cecc;strokeColor=#b85450;strokeWidth=2;fontSize=16;horizontal=0;" parent="td4NYP-ENdZDlqvNvc2s-265" vertex="1">
                    <mxGeometry x="540" y="330" width="20" height="70" as="geometry"/>
                </mxCell>
                <mxCell id="td4NYP-ENdZDlqvNvc2s-311" value="k 2" style="rounded=0;whiteSpace=wrap;html=1;fillColor=#fff2cc;strokeColor=#d6b656;strokeWidth=2;fontSize=16;horizontal=0;" parent="td4NYP-ENdZDlqvNvc2s-265" vertex="1">
                    <mxGeometry x="560" y="330" width="20" height="70" as="geometry"/>
                </mxCell>
                <mxCell id="td4NYP-ENdZDlqvNvc2s-312" value="v 2" style="rounded=0;whiteSpace=wrap;html=1;fillColor=#f8cecc;strokeColor=#b85450;strokeWidth=2;fontSize=16;horizontal=0;" parent="td4NYP-ENdZDlqvNvc2s-265" vertex="1">
                    <mxGeometry x="580" y="330" width="20" height="70" as="geometry"/>
                </mxCell>
                <mxCell id="td4NYP-ENdZDlqvNvc2s-313" value="k 3" style="rounded=0;whiteSpace=wrap;html=1;fillColor=#fff2cc;strokeColor=#d6b656;strokeWidth=2;fontSize=16;horizontal=0;" parent="td4NYP-ENdZDlqvNvc2s-265" vertex="1">
                    <mxGeometry x="600" y="330" width="20" height="70" as="geometry"/>
                </mxCell>
                <mxCell id="td4NYP-ENdZDlqvNvc2s-314" value="v 3" style="rounded=0;whiteSpace=wrap;html=1;fillColor=#f8cecc;strokeColor=#b85450;strokeWidth=2;fontSize=16;horizontal=0;" parent="td4NYP-ENdZDlqvNvc2s-265" vertex="1">
                    <mxGeometry x="620" y="330" width="20" height="70" as="geometry"/>
                </mxCell>
                <mxCell id="td4NYP-ENdZDlqvNvc2s-315" value="page l11" style="rounded=0;whiteSpace=wrap;html=1;fillColor=#dae8fc;strokeColor=#6c8ebf;strokeWidth=2;fontSize=16;" parent="td4NYP-ENdZDlqvNvc2s-265" vertex="1">
                    <mxGeometry x="720" y="240" width="160" height="40" as="geometry"/>
                </mxCell>
                <mxCell id="td4NYP-ENdZDlqvNvc2s-316" value="elem&lt;br&gt;0" style="rounded=0;whiteSpace=wrap;html=1;fillColor=#d5e8d4;strokeColor=#82b366;strokeWidth=2;fontSize=16;" parent="td4NYP-ENdZDlqvNvc2s-265" vertex="1">
                    <mxGeometry x="720" y="280" width="40" height="40" as="geometry"/>
                </mxCell>
                <mxCell id="td4NYP-ENdZDlqvNvc2s-317" value="elem&lt;br&gt;1" style="rounded=0;whiteSpace=wrap;html=1;fillColor=#d5e8d4;strokeColor=#82b366;strokeWidth=2;fontSize=16;" parent="td4NYP-ENdZDlqvNvc2s-265" vertex="1">
                    <mxGeometry x="760" y="280" width="40" height="40" as="geometry"/>
                </mxCell>
                <mxCell id="td4NYP-ENdZDlqvNvc2s-318" value="elem&lt;br&gt;2" style="rounded=0;whiteSpace=wrap;html=1;fillColor=#d5e8d4;strokeColor=#82b366;strokeWidth=2;fontSize=16;" parent="td4NYP-ENdZDlqvNvc2s-265" vertex="1">
                    <mxGeometry x="800" y="280" width="40" height="40" as="geometry"/>
                </mxCell>
                <mxCell id="td4NYP-ENdZDlqvNvc2s-319" value="k 0" style="rounded=0;whiteSpace=wrap;html=1;fillColor=#fff2cc;strokeColor=#d6b656;strokeWidth=2;fontSize=16;horizontal=0;" parent="td4NYP-ENdZDlqvNvc2s-265" vertex="1">
                    <mxGeometry x="720" y="330" width="20" height="70" as="geometry"/>
                </mxCell>
                <mxCell id="td4NYP-ENdZDlqvNvc2s-320" value="elem&lt;br&gt;3" style="rounded=0;whiteSpace=wrap;html=1;fillColor=#d5e8d4;strokeColor=#82b366;strokeWidth=2;fontSize=16;" parent="td4NYP-ENdZDlqvNvc2s-265" vertex="1">
                    <mxGeometry x="840" y="280" width="40" height="40" as="geometry"/>
                </mxCell>
                <mxCell id="td4NYP-ENdZDlqvNvc2s-321" value="v 0" style="rounded=0;whiteSpace=wrap;html=1;fillColor=#f8cecc;strokeColor=#b85450;strokeWidth=2;fontSize=16;horizontal=0;" parent="td4NYP-ENdZDlqvNvc2s-265" vertex="1">
                    <mxGeometry x="740" y="330" width="20" height="70" as="geometry"/>
                </mxCell>
                <mxCell id="td4NYP-ENdZDlqvNvc2s-322" value="k 1" style="rounded=0;whiteSpace=wrap;html=1;fillColor=#fff2cc;strokeColor=#d6b656;strokeWidth=2;fontSize=16;horizontal=0;" parent="td4NYP-ENdZDlqvNvc2s-265" vertex="1">
                    <mxGeometry x="760" y="330" width="20" height="70" as="geometry"/>
                </mxCell>
                <mxCell id="td4NYP-ENdZDlqvNvc2s-323" value="v 1" style="rounded=0;whiteSpace=wrap;html=1;fillColor=#f8cecc;strokeColor=#b85450;strokeWidth=2;fontSize=16;horizontal=0;" parent="td4NYP-ENdZDlqvNvc2s-265" vertex="1">
                    <mxGeometry x="780" y="330" width="20" height="70" as="geometry"/>
                </mxCell>
                <mxCell id="td4NYP-ENdZDlqvNvc2s-324" value="k 2" style="rounded=0;whiteSpace=wrap;html=1;fillColor=#fff2cc;strokeColor=#d6b656;strokeWidth=2;fontSize=16;horizontal=0;" parent="td4NYP-ENdZDlqvNvc2s-265" vertex="1">
                    <mxGeometry x="800" y="330" width="20" height="70" as="geometry"/>
                </mxCell>
                <mxCell id="td4NYP-ENdZDlqvNvc2s-325" value="v 2" style="rounded=0;whiteSpace=wrap;html=1;fillColor=#f8cecc;strokeColor=#b85450;strokeWidth=2;fontSize=16;horizontal=0;" parent="td4NYP-ENdZDlqvNvc2s-265" vertex="1">
                    <mxGeometry x="820" y="330" width="20" height="70" as="geometry"/>
                </mxCell>
                <mxCell id="td4NYP-ENdZDlqvNvc2s-326" value="k 3" style="rounded=0;whiteSpace=wrap;html=1;fillColor=#fff2cc;strokeColor=#d6b656;strokeWidth=2;fontSize=16;horizontal=0;" parent="td4NYP-ENdZDlqvNvc2s-265" vertex="1">
                    <mxGeometry x="840" y="330" width="20" height="70" as="geometry"/>
                </mxCell>
                <mxCell id="td4NYP-ENdZDlqvNvc2s-327" value="v 3" style="rounded=0;whiteSpace=wrap;html=1;fillColor=#f8cecc;strokeColor=#b85450;strokeWidth=2;fontSize=16;horizontal=0;" parent="td4NYP-ENdZDlqvNvc2s-265" vertex="1">
                    <mxGeometry x="860" y="330" width="20" height="70" as="geometry"/>
                </mxCell>
                <mxCell id="td4NYP-ENdZDlqvNvc2s-328" style="edgeStyle=orthogonalEdgeStyle;curved=1;rounded=0;orthogonalLoop=1;jettySize=auto;html=1;exitX=0.5;exitY=1;exitDx=0;exitDy=0;entryX=0.5;entryY=0;entryDx=0;entryDy=0;" parent="td4NYP-ENdZDlqvNvc2s-265" source="td4NYP-ENdZDlqvNvc2s-281" target="td4NYP-ENdZDlqvNvc2s-289" edge="1">
                    <mxGeometry relative="1" as="geometry"/>
                </mxCell>
                <mxCell id="td4NYP-ENdZDlqvNvc2s-329" style="edgeStyle=orthogonalEdgeStyle;curved=1;rounded=0;orthogonalLoop=1;jettySize=auto;html=1;exitX=0.5;exitY=1;exitDx=0;exitDy=0;entryX=0.5;entryY=0;entryDx=0;entryDy=0;" parent="td4NYP-ENdZDlqvNvc2s-265" source="td4NYP-ENdZDlqvNvc2s-282" target="td4NYP-ENdZDlqvNvc2s-302" edge="1">
                    <mxGeometry relative="1" as="geometry"/>
                </mxCell>
                <mxCell id="td4NYP-ENdZDlqvNvc2s-330" style="edgeStyle=orthogonalEdgeStyle;curved=1;rounded=0;orthogonalLoop=1;jettySize=auto;html=1;exitX=0.5;exitY=1;exitDx=0;exitDy=0;" parent="td4NYP-ENdZDlqvNvc2s-265" source="td4NYP-ENdZDlqvNvc2s-284" target="td4NYP-ENdZDlqvNvc2s-315" edge="1">
                    <mxGeometry relative="1" as="geometry"/>
                </mxCell>
                <mxCell id="td4NYP-ENdZDlqvNvc2s-331" style="edgeStyle=orthogonalEdgeStyle;curved=1;rounded=0;orthogonalLoop=1;jettySize=auto;html=1;exitX=0.5;exitY=1;exitDx=0;exitDy=0;entryX=0.5;entryY=0;entryDx=0;entryDy=0;dashed=1;" parent="g8rNYsrk2wVaHTUvxYKV-1" source="td4NYP-ENdZDlqvNvc2s-247" target="td4NYP-ENdZDlqvNvc2s-279" edge="1">
                    <mxGeometry relative="1" as="geometry"/>
                </mxCell>
            </root>
        </mxGraphModel>
    </diagram>
    <diagram id="M5KVsnac0ch-EIf2WkZ_" name="inline bucket">
        <mxGraphModel dx="1054" dy="617" grid="1" gridSize="10" guides="1" tooltips="1" connect="1" arrows="1" fold="1" page="1" pageScale="1" pageWidth="827" pageHeight="1169" background="#ffffff" math="0" shadow="0">
            <root>
                <mxCell id="8drMhWY4XOWVEkd1eBEV-0"/>
                <mxCell id="8drMhWY4XOWVEkd1eBEV-1" parent="8drMhWY4XOWVEkd1eBEV-0"/>
                <mxCell id="zGyY4oxYS13qljqahMcB-0" value="bucket name" style="rounded=0;whiteSpace=wrap;html=1;fillColor=#fff2cc;strokeColor=#d6b656;strokeWidth=2;fontSize=16;horizontal=1;" parent="8drMhWY4XOWVEkd1eBEV-1" vertex="1">
                    <mxGeometry x="200" y="400" width="160" height="40" as="geometry"/>
                </mxCell>
                <mxCell id="zGyY4oxYS13qljqahMcB-1" value="root (pgid)" style="rounded=0;whiteSpace=wrap;html=1;fillColor=#f8cecc;strokeColor=#b85450;strokeWidth=2;fontSize=16;horizontal=1;" parent="8drMhWY4XOWVEkd1eBEV-1" vertex="1">
                    <mxGeometry x="200" y="440" width="120" height="40" as="geometry"/>
                </mxCell>
                <mxCell id="zGyY4oxYS13qljqahMcB-2" value="key" style="text;html=1;align=right;verticalAlign=middle;resizable=0;points=[];autosize=1;fontSize=16;" parent="8drMhWY4XOWVEkd1eBEV-1" vertex="1">
                    <mxGeometry x="120" y="410" width="40" height="20" as="geometry"/>
                </mxCell>
                <mxCell id="zGyY4oxYS13qljqahMcB-3" value="value" style="text;html=1;align=right;verticalAlign=middle;resizable=0;points=[];autosize=1;fontSize=16;" parent="8drMhWY4XOWVEkd1eBEV-1" vertex="1">
                    <mxGeometry x="110" y="450" width="50" height="20" as="geometry"/>
                </mxCell>
                <mxCell id="zGyY4oxYS13qljqahMcB-4" value="sequence" style="rounded=0;whiteSpace=wrap;html=1;fillColor=#f8cecc;strokeColor=#b85450;strokeWidth=2;fontSize=16;horizontal=1;" parent="8drMhWY4XOWVEkd1eBEV-1" vertex="1">
                    <mxGeometry x="320" y="440" width="120" height="40" as="geometry"/>
                </mxCell>
                <mxCell id="gPRkEGtDh183hmyd-B6O-1" value="B+Tree&lt;br&gt;root page" style="rounded=0;whiteSpace=wrap;html=1;fillColor=#f5f5f5;strokeColor=#666666;strokeWidth=2;fontSize=16;horizontal=1;fontColor=#333333;" parent="8drMhWY4XOWVEkd1eBEV-1" vertex="1">
                    <mxGeometry x="480" y="320" width="160" height="160" as="geometry"/>
                </mxCell>
                <mxCell id="gPRkEGtDh183hmyd-B6O-3" value="①regular bucket" style="text;html=1;align=left;verticalAlign=middle;resizable=0;points=[];autosize=1;fontSize=16;" parent="8drMhWY4XOWVEkd1eBEV-1" vertex="1">
                    <mxGeometry x="120" y="360" width="130" height="20" as="geometry"/>
                </mxCell>
                <mxCell id="gPRkEGtDh183hmyd-B6O-4" value="②inline bucket" style="text;html=1;align=left;verticalAlign=middle;resizable=0;points=[];autosize=1;fontSize=16;" parent="8drMhWY4XOWVEkd1eBEV-1" vertex="1">
                    <mxGeometry x="120" y="520" width="120" height="20" as="geometry"/>
                </mxCell>
                <mxCell id="gPRkEGtDh183hmyd-B6O-5" value="bucket name" style="rounded=0;whiteSpace=wrap;html=1;fillColor=#fff2cc;strokeColor=#d6b656;strokeWidth=2;fontSize=16;horizontal=1;" parent="8drMhWY4XOWVEkd1eBEV-1" vertex="1">
                    <mxGeometry x="200" y="560" width="160" height="40" as="geometry"/>
                </mxCell>
                <mxCell id="gPRkEGtDh183hmyd-B6O-6" value="root (pgid = 0)" style="rounded=0;whiteSpace=wrap;html=1;fillColor=#f8cecc;strokeColor=#b85450;strokeWidth=2;fontSize=16;horizontal=1;" parent="8drMhWY4XOWVEkd1eBEV-1" vertex="1">
                    <mxGeometry x="200" y="600" width="120" height="40" as="geometry"/>
                </mxCell>
                <mxCell id="gPRkEGtDh183hmyd-B6O-7" value="key" style="text;html=1;align=right;verticalAlign=middle;resizable=0;points=[];autosize=1;fontSize=16;" parent="8drMhWY4XOWVEkd1eBEV-1" vertex="1">
                    <mxGeometry x="120" y="570" width="40" height="20" as="geometry"/>
                </mxCell>
                <mxCell id="gPRkEGtDh183hmyd-B6O-8" value="value" style="text;html=1;align=right;verticalAlign=middle;resizable=0;points=[];autosize=1;fontSize=16;" parent="8drMhWY4XOWVEkd1eBEV-1" vertex="1">
                    <mxGeometry x="110" y="610" width="50" height="20" as="geometry"/>
                </mxCell>
                <mxCell id="gPRkEGtDh183hmyd-B6O-9" value="sequence" style="rounded=0;whiteSpace=wrap;html=1;fillColor=#f8cecc;strokeColor=#b85450;strokeWidth=2;fontSize=16;horizontal=1;" parent="8drMhWY4XOWVEkd1eBEV-1" vertex="1">
                    <mxGeometry x="320" y="600" width="120" height="40" as="geometry"/>
                </mxCell>
                <mxCell id="gPRkEGtDh183hmyd-B6O-10" value="B+Tree&lt;br&gt;virtual root page" style="rounded=0;whiteSpace=wrap;html=1;fillColor=#f5f5f5;strokeColor=#666666;strokeWidth=2;fontSize=16;horizontal=1;fontColor=#333333;" parent="8drMhWY4XOWVEkd1eBEV-1" vertex="1">
                    <mxGeometry x="440" y="600" width="200" height="40" as="geometry"/>
                </mxCell>
                <mxCell id="gPRkEGtDh183hmyd-B6O-11" style="edgeStyle=orthogonalEdgeStyle;curved=1;rounded=0;orthogonalLoop=1;jettySize=auto;html=1;exitX=1;exitY=0.5;exitDx=0;exitDy=0;entryX=0.5;entryY=0;entryDx=0;entryDy=0;dashed=1;fontSize=16;" parent="8drMhWY4XOWVEkd1eBEV-1" source="zGyY4oxYS13qljqahMcB-1" target="gPRkEGtDh183hmyd-B6O-1" edge="1">
                    <mxGeometry relative="1" as="geometry"/>
                </mxCell>
            </root>
        </mxGraphModel>
    </diagram>
    <diagram id="XLe9w8HhZTpYPNk5eCb2" name="assets">
        <mxGraphModel dx="1054" dy="617" grid="1" gridSize="10" guides="1" tooltips="1" connect="1" arrows="1" fold="1" page="1" pageScale="1" pageWidth="827" pageHeight="1169" background="#ffffff" math="0" shadow="0">
            <root>
                <mxCell id="XhxCKdQRv04rdCtFDhm--0"/>
                <mxCell id="XhxCKdQRv04rdCtFDhm--1" parent="XhxCKdQRv04rdCtFDhm--0"/>
                <mxCell id="wOTXF7HwErHKyObwAU64-0" value="page" style="rounded=0;whiteSpace=wrap;html=1;fillColor=#dae8fc;strokeColor=#6c8ebf;strokeWidth=2;fontSize=16;" parent="XhxCKdQRv04rdCtFDhm--1" vertex="1">
                    <mxGeometry x="200" y="200" width="280" height="40" as="geometry"/>
                </mxCell>
                <mxCell id="wOTXF7HwErHKyObwAU64-1" value="leafPageElement 0" style="rounded=0;whiteSpace=wrap;html=1;fillColor=#d5e8d4;strokeColor=#82b366;strokeWidth=2;fontSize=16;" parent="XhxCKdQRv04rdCtFDhm--1" vertex="1">
                    <mxGeometry x="200" y="240" width="280" height="40" as="geometry"/>
                </mxCell>
                <mxCell id="wOTXF7HwErHKyObwAU64-4" value="k 0" style="rounded=0;whiteSpace=wrap;html=1;fillColor=#fff2cc;strokeColor=#d6b656;strokeWidth=2;fontSize=16;" parent="XhxCKdQRv04rdCtFDhm--1" vertex="1">
                    <mxGeometry x="200" y="360" width="280" height="20" as="geometry"/>
                </mxCell>
                <mxCell id="wOTXF7HwErHKyObwAU64-5" value="value 0" style="rounded=0;whiteSpace=wrap;html=1;fillColor=#f8cecc;strokeColor=#b85450;strokeWidth=2;fontSize=16;" parent="XhxCKdQRv04rdCtFDhm--1" vertex="1">
                    <mxGeometry x="80" y="580" width="120" height="20" as="geometry"/>
                </mxCell>
                <mxCell id="wOTXF7HwErHKyObwAU64-6" value="value 1" style="rounded=0;whiteSpace=wrap;html=1;fillColor=#f8cecc;strokeColor=#b85450;strokeWidth=2;fontSize=16;" parent="XhxCKdQRv04rdCtFDhm--1" vertex="1">
                    <mxGeometry x="80" y="620" width="120" height="20" as="geometry"/>
                </mxCell>
                <mxCell id="wOTXF7HwErHKyObwAU64-7" value="key 1" style="rounded=0;whiteSpace=wrap;html=1;fillColor=#fff2cc;strokeColor=#d6b656;strokeWidth=2;fontSize=16;" parent="XhxCKdQRv04rdCtFDhm--1" vertex="1">
                    <mxGeometry x="80" y="600" width="120" height="20" as="geometry"/>
                </mxCell>
                <mxCell id="wOTXF7HwErHKyObwAU64-8" value="key 2" style="rounded=0;whiteSpace=wrap;html=1;fillColor=#fff2cc;strokeColor=#d6b656;strokeWidth=2;fontSize=16;" parent="XhxCKdQRv04rdCtFDhm--1" vertex="1">
                    <mxGeometry x="80" y="640" width="120" height="20" as="geometry"/>
                </mxCell>
                <mxCell id="wOTXF7HwErHKyObwAU64-9" value="value 2" style="rounded=0;whiteSpace=wrap;html=1;fillColor=#f8cecc;strokeColor=#b85450;strokeWidth=2;fontSize=16;" parent="XhxCKdQRv04rdCtFDhm--1" vertex="1">
                    <mxGeometry x="80" y="660" width="120" height="20" as="geometry"/>
                </mxCell>
                <mxCell id="wOTXF7HwErHKyObwAU64-10" value="leafPageElement 1" style="rounded=0;whiteSpace=wrap;html=1;fillColor=#d5e8d4;strokeColor=#82b366;strokeWidth=2;fontSize=16;" parent="XhxCKdQRv04rdCtFDhm--1" vertex="1">
                    <mxGeometry x="200" y="280" width="280" height="40" as="geometry"/>
                </mxCell>
                <mxCell id="wOTXF7HwErHKyObwAU64-11" value="leafPageElement 2" style="rounded=0;whiteSpace=wrap;html=1;fillColor=#d5e8d4;strokeColor=#82b366;strokeWidth=2;fontSize=16;" parent="XhxCKdQRv04rdCtFDhm--1" vertex="1">
                    <mxGeometry x="200" y="320" width="280" height="40" as="geometry"/>
                </mxCell>
                <mxCell id="wOTXF7HwErHKyObwAU64-12" value="v 0" style="rounded=0;whiteSpace=wrap;html=1;fillColor=#f8cecc;strokeColor=#b85450;strokeWidth=2;fontSize=16;" parent="XhxCKdQRv04rdCtFDhm--1" vertex="1">
                    <mxGeometry x="200" y="380" width="280" height="20" as="geometry"/>
                </mxCell>
                <mxCell id="wOTXF7HwErHKyObwAU64-14" value="k 1 (bucket name)" style="rounded=0;whiteSpace=wrap;html=1;fillColor=#fff2cc;strokeColor=#d6b656;strokeWidth=2;fontSize=16;" parent="XhxCKdQRv04rdCtFDhm--1" vertex="1">
                    <mxGeometry x="200" y="400" width="280" height="20" as="geometry"/>
                </mxCell>
                <mxCell id="wOTXF7HwErHKyObwAU64-15" value="v 1 (pgid + sequence)" style="rounded=0;whiteSpace=wrap;html=1;fillColor=#f8cecc;strokeColor=#b85450;strokeWidth=2;fontSize=16;" parent="XhxCKdQRv04rdCtFDhm--1" vertex="1">
                    <mxGeometry x="200" y="420" width="280" height="20" as="geometry"/>
                </mxCell>
                <mxCell id="wOTXF7HwErHKyObwAU64-16" value="k 2" style="rounded=0;whiteSpace=wrap;html=1;fillColor=#fff2cc;strokeColor=#d6b656;strokeWidth=2;fontSize=16;" parent="XhxCKdQRv04rdCtFDhm--1" vertex="1">
                    <mxGeometry x="200" y="440" width="280" height="20" as="geometry"/>
                </mxCell>
                <mxCell id="wOTXF7HwErHKyObwAU64-17" value="v 2" style="rounded=0;whiteSpace=wrap;html=1;fillColor=#f8cecc;strokeColor=#b85450;strokeWidth=2;fontSize=16;" parent="XhxCKdQRv04rdCtFDhm--1" vertex="1">
                    <mxGeometry x="200" y="460" width="280" height="20" as="geometry"/>
                </mxCell>
            </root>
        </mxGraphModel>
    </diagram>
    <diagram id="6XT2EdvgF4kqO8aajzAI" name="assets">
        <mxGraphModel dx="1054" dy="617" grid="1" gridSize="10" guides="1" tooltips="1" connect="1" arrows="1" fold="1" page="1" pageScale="1" pageWidth="827" pageHeight="1169" background="#ffffff" math="0" shadow="0">
            <root>
                <mxCell id="0"/>
                <mxCell id="1" parent="0"/>
                <mxCell id="5" value="page" style="rounded=0;whiteSpace=wrap;html=1;fillColor=#dae8fc;strokeColor=#6c8ebf;strokeWidth=2;fontSize=16;" parent="1" vertex="1">
                    <mxGeometry x="520" y="520" width="160" height="40" as="geometry"/>
                </mxCell>
                <mxCell id="26" value="elem&lt;br&gt;0" style="rounded=0;whiteSpace=wrap;html=1;fillColor=#d5e8d4;strokeColor=#82b366;strokeWidth=2;fontSize=16;" parent="1" vertex="1">
                    <mxGeometry x="520" y="560" width="40" height="40" as="geometry"/>
                </mxCell>
                <mxCell id="27" value="elem&lt;br&gt;1" style="rounded=0;whiteSpace=wrap;html=1;fillColor=#d5e8d4;strokeColor=#82b366;strokeWidth=2;fontSize=16;" parent="1" vertex="1">
                    <mxGeometry x="520" y="600" width="40" height="40" as="geometry"/>
                </mxCell>
                <mxCell id="28" value="elem&lt;br&gt;2" style="rounded=0;whiteSpace=wrap;html=1;fillColor=#d5e8d4;strokeColor=#82b366;strokeWidth=2;fontSize=16;" parent="1" vertex="1">
                    <mxGeometry x="520" y="640" width="40" height="40" as="geometry"/>
                </mxCell>
                <mxCell id="30" value="key 0" style="rounded=0;whiteSpace=wrap;html=1;fillColor=#fff2cc;strokeColor=#d6b656;strokeWidth=2;fontSize=16;" parent="1" vertex="1">
                    <mxGeometry x="560" y="560" width="120" height="20" as="geometry"/>
                </mxCell>
                <mxCell id="31" value="value 0" style="rounded=0;whiteSpace=wrap;html=1;fillColor=#f8cecc;strokeColor=#b85450;strokeWidth=2;fontSize=16;" parent="1" vertex="1">
                    <mxGeometry x="560" y="580" width="120" height="20" as="geometry"/>
                </mxCell>
                <mxCell id="33" value="value 1" style="rounded=0;whiteSpace=wrap;html=1;fillColor=#f8cecc;strokeColor=#b85450;strokeWidth=2;fontSize=16;" parent="1" vertex="1">
                    <mxGeometry x="560" y="620" width="120" height="20" as="geometry"/>
                </mxCell>
                <mxCell id="34" value="key 1" style="rounded=0;whiteSpace=wrap;html=1;fillColor=#fff2cc;strokeColor=#d6b656;strokeWidth=2;fontSize=16;" parent="1" vertex="1">
                    <mxGeometry x="560" y="600" width="120" height="20" as="geometry"/>
                </mxCell>
                <mxCell id="35" value="key 2" style="rounded=0;whiteSpace=wrap;html=1;fillColor=#fff2cc;strokeColor=#d6b656;strokeWidth=2;fontSize=16;" parent="1" vertex="1">
                    <mxGeometry x="560" y="640" width="120" height="20" as="geometry"/>
                </mxCell>
                <mxCell id="36" value="value 2" style="rounded=0;whiteSpace=wrap;html=1;fillColor=#f8cecc;strokeColor=#b85450;strokeWidth=2;fontSize=16;" parent="1" vertex="1">
                    <mxGeometry x="560" y="660" width="120" height="20" as="geometry"/>
                </mxCell>
                <mxCell id="37" value="page" style="rounded=0;whiteSpace=wrap;html=1;fillColor=#dae8fc;strokeColor=#6c8ebf;strokeWidth=2;fontSize=16;" parent="1" vertex="1">
                    <mxGeometry x="200" y="520" width="160" height="40" as="geometry"/>
                </mxCell>
                <mxCell id="38" value="elem&lt;br&gt;0" style="rounded=0;whiteSpace=wrap;html=1;fillColor=#d5e8d4;strokeColor=#82b366;strokeWidth=2;fontSize=16;" parent="1" vertex="1">
                    <mxGeometry x="200" y="560" width="40" height="40" as="geometry"/>
                </mxCell>
                <mxCell id="39" value="elem&lt;br&gt;1" style="rounded=0;whiteSpace=wrap;html=1;fillColor=#d5e8d4;strokeColor=#82b366;strokeWidth=2;fontSize=16;" parent="1" vertex="1">
                    <mxGeometry x="200" y="600" width="40" height="40" as="geometry"/>
                </mxCell>
                <mxCell id="40" value="elem&lt;br&gt;2" style="rounded=0;whiteSpace=wrap;html=1;fillColor=#d5e8d4;strokeColor=#82b366;strokeWidth=2;fontSize=16;" parent="1" vertex="1">
                    <mxGeometry x="200" y="640" width="40" height="40" as="geometry"/>
                </mxCell>
                <mxCell id="41" value="key 0" style="rounded=0;whiteSpace=wrap;html=1;fillColor=#fff2cc;strokeColor=#d6b656;strokeWidth=2;fontSize=16;" parent="1" vertex="1">
                    <mxGeometry x="240" y="560" width="120" height="40" as="geometry"/>
                </mxCell>
                <mxCell id="44" value="key 1" style="rounded=0;whiteSpace=wrap;html=1;fillColor=#fff2cc;strokeColor=#d6b656;strokeWidth=2;fontSize=16;" parent="1" vertex="1">
                    <mxGeometry x="240" y="600" width="120" height="40" as="geometry"/>
                </mxCell>
                <mxCell id="45" value="key 2" style="rounded=0;whiteSpace=wrap;html=1;fillColor=#fff2cc;strokeColor=#d6b656;strokeWidth=2;fontSize=16;" parent="1" vertex="1">
                    <mxGeometry x="240" y="640" width="120" height="40" as="geometry"/>
                </mxCell>
                <mxCell id="47" value="page" style="rounded=0;whiteSpace=wrap;html=1;fillColor=#dae8fc;strokeColor=#6c8ebf;strokeWidth=2;fontSize=16;" parent="1" vertex="1">
                    <mxGeometry x="520" y="800" width="160" height="40" as="geometry"/>
                </mxCell>
                <mxCell id="48" value="elem&lt;br&gt;0" style="rounded=0;whiteSpace=wrap;html=1;fillColor=#d5e8d4;strokeColor=#82b366;strokeWidth=2;fontSize=16;" parent="1" vertex="1">
                    <mxGeometry x="520" y="840" width="40" height="40" as="geometry"/>
                </mxCell>
                <mxCell id="49" value="elem&lt;br&gt;1" style="rounded=0;whiteSpace=wrap;html=1;fillColor=#d5e8d4;strokeColor=#82b366;strokeWidth=2;fontSize=16;" parent="1" vertex="1">
                    <mxGeometry x="560" y="840" width="40" height="40" as="geometry"/>
                </mxCell>
                <mxCell id="50" value="elem&lt;br&gt;2" style="rounded=0;whiteSpace=wrap;html=1;fillColor=#d5e8d4;strokeColor=#82b366;strokeWidth=2;fontSize=16;" parent="1" vertex="1">
                    <mxGeometry x="600" y="840" width="40" height="40" as="geometry"/>
                </mxCell>
                <mxCell id="51" value="k 0" style="rounded=0;whiteSpace=wrap;html=1;fillColor=#fff2cc;strokeColor=#d6b656;strokeWidth=2;fontSize=16;horizontal=0;" parent="1" vertex="1">
                    <mxGeometry x="520" y="880" width="20" height="80" as="geometry"/>
                </mxCell>
                <mxCell id="54" value="elem&lt;br&gt;3" style="rounded=0;whiteSpace=wrap;html=1;fillColor=#d5e8d4;strokeColor=#82b366;strokeWidth=2;fontSize=16;" parent="1" vertex="1">
                    <mxGeometry x="640" y="840" width="40" height="40" as="geometry"/>
                </mxCell>
                <mxCell id="55" value="v 0" style="rounded=0;whiteSpace=wrap;html=1;fillColor=#f8cecc;strokeColor=#b85450;strokeWidth=2;fontSize=16;horizontal=0;" parent="1" vertex="1">
                    <mxGeometry x="540" y="880" width="20" height="80" as="geometry"/>
                </mxCell>
                <mxCell id="56" value="k 1" style="rounded=0;whiteSpace=wrap;html=1;fillColor=#fff2cc;strokeColor=#d6b656;strokeWidth=2;fontSize=16;horizontal=0;" parent="1" vertex="1">
                    <mxGeometry x="560" y="880" width="20" height="80" as="geometry"/>
                </mxCell>
                <mxCell id="57" value="v 1" style="rounded=0;whiteSpace=wrap;html=1;fillColor=#f8cecc;strokeColor=#b85450;strokeWidth=2;fontSize=16;horizontal=0;" parent="1" vertex="1">
                    <mxGeometry x="580" y="880" width="20" height="80" as="geometry"/>
                </mxCell>
                <mxCell id="58" value="k 2" style="rounded=0;whiteSpace=wrap;html=1;fillColor=#fff2cc;strokeColor=#d6b656;strokeWidth=2;fontSize=16;horizontal=0;" parent="1" vertex="1">
                    <mxGeometry x="600" y="880" width="20" height="80" as="geometry"/>
                </mxCell>
                <mxCell id="59" value="v 2" style="rounded=0;whiteSpace=wrap;html=1;fillColor=#f8cecc;strokeColor=#b85450;strokeWidth=2;fontSize=16;horizontal=0;" parent="1" vertex="1">
                    <mxGeometry x="620" y="880" width="20" height="80" as="geometry"/>
                </mxCell>
                <mxCell id="60" value="k 3" style="rounded=0;whiteSpace=wrap;html=1;fillColor=#fff2cc;strokeColor=#d6b656;strokeWidth=2;fontSize=16;horizontal=0;" parent="1" vertex="1">
                    <mxGeometry x="640" y="880" width="20" height="80" as="geometry"/>
                </mxCell>
                <mxCell id="61" value="v 3" style="rounded=0;whiteSpace=wrap;html=1;fillColor=#f8cecc;strokeColor=#b85450;strokeWidth=2;fontSize=16;horizontal=0;" parent="1" vertex="1">
                    <mxGeometry x="660" y="880" width="20" height="80" as="geometry"/>
                </mxCell>
                <mxCell id="62" value="page" style="rounded=0;whiteSpace=wrap;html=1;fillColor=#dae8fc;strokeColor=#6c8ebf;strokeWidth=2;fontSize=16;" parent="1" vertex="1">
                    <mxGeometry x="200" y="800" width="160" height="40" as="geometry"/>
                </mxCell>
                <mxCell id="63" value="elem&lt;br&gt;0" style="rounded=0;whiteSpace=wrap;html=1;fillColor=#d5e8d4;strokeColor=#82b366;strokeWidth=2;fontSize=16;" parent="1" vertex="1">
                    <mxGeometry x="200" y="840" width="40" height="40" as="geometry"/>
                </mxCell>
                <mxCell id="64" value="elem&lt;br&gt;1" style="rounded=0;whiteSpace=wrap;html=1;fillColor=#d5e8d4;strokeColor=#82b366;strokeWidth=2;fontSize=16;" parent="1" vertex="1">
                    <mxGeometry x="240" y="840" width="40" height="40" as="geometry"/>
                </mxCell>
                <mxCell id="65" value="elem&lt;br&gt;2" style="rounded=0;whiteSpace=wrap;html=1;fillColor=#d5e8d4;strokeColor=#82b366;strokeWidth=2;fontSize=16;" parent="1" vertex="1">
                    <mxGeometry x="280" y="840" width="40" height="40" as="geometry"/>
                </mxCell>
                <mxCell id="66" value="k 0" style="rounded=0;whiteSpace=wrap;html=1;fillColor=#fff2cc;strokeColor=#d6b656;strokeWidth=2;fontSize=16;horizontal=0;" parent="1" vertex="1">
                    <mxGeometry x="200" y="880" width="40" height="80" as="geometry"/>
                </mxCell>
                <mxCell id="67" value="elem&lt;br&gt;3" style="rounded=0;whiteSpace=wrap;html=1;fillColor=#d5e8d4;strokeColor=#82b366;strokeWidth=2;fontSize=16;" parent="1" vertex="1">
                    <mxGeometry x="320" y="840" width="40" height="40" as="geometry"/>
                </mxCell>
                <mxCell id="69" value="k 1" style="rounded=0;whiteSpace=wrap;html=1;fillColor=#fff2cc;strokeColor=#d6b656;strokeWidth=2;fontSize=16;horizontal=0;" parent="1" vertex="1">
                    <mxGeometry x="240" y="880" width="40" height="80" as="geometry"/>
                </mxCell>
                <mxCell id="71" value="k 2" style="rounded=0;whiteSpace=wrap;html=1;fillColor=#fff2cc;strokeColor=#d6b656;strokeWidth=2;fontSize=16;horizontal=0;" parent="1" vertex="1">
                    <mxGeometry x="280" y="880" width="40" height="80" as="geometry"/>
                </mxCell>
                <mxCell id="73" value="k 3" style="rounded=0;whiteSpace=wrap;html=1;fillColor=#fff2cc;strokeColor=#d6b656;strokeWidth=2;fontSize=16;horizontal=0;" parent="1" vertex="1">
                    <mxGeometry x="320" y="880" width="40" height="80" as="geometry"/>
                </mxCell>
            </root>
        </mxGraphModel>
    </diagram>
</mxfile>